{"asset":{"version":"2.0","generator":"THREE.GLTFExporter"},"scenes":[{"name":"default","nodes":[0]}],"scene":0,"nodes":[{"matrix":[1,0,0,0,0,1,0,0,0,0,1,0,0.640625,1.515625,-2.3125,1],"name":"controls","extras":{"data":{"name":"controls","points":[{"name":"Origin","pos":{"x":0,"y":0,"z":0}}],"billboard":{"enabled":false,"y":false},"custom":[],"instance":{"name":"controls","uuid":"60072023-A852-499D-A9CE-F85A0B748695","parent":null,"pos":{"x":0.64,"y":1.5150000000000001,"z":-2.31},"rot":{"x":0,"y":0,"z":0,"order":"XYZ"},"sca":{"x":1,"y":1,"z":1},"custom":[]}}},"mesh":0}],"bufferViews":[{"buffer":0,"byteOffset":0,"byteLength":288,"target":34962,"byteStride":12},{"buffer":0,"byteOffset":288,"byteLength":288,"target":34962,"byteStride":12},{"buffer":0,"byteOffset":576,"byteLength":192,"target":34962,"byteStride":8},{"buffer":0,"byteOffset":768,"byteLength":288,"target":34962,"byteStride":12},{"buffer":0,"byteOffset":1056,"byteLength":192,"target":34962,"byteStride":8},{"buffer":0,"byteOffset":1248,"byteLength":72,"target":34963}],"buffers":[{"byteLength":1320,"uri":"data:application/octet-stream;base64,"}],"accessors":[{"bufferView":0,"componentType":5126,"count":24,"max":[0.390625,0.4072590172290802,0.47657495737075806],"min":[-0.359375,-0.06250900030136108,-0.078125],"type":"VEC3"},{"bufferView":1,"componentType":5126,"count":24,"max":[0.10130542516708374,0.42261821031570435,0.9319620132446289],"min":[-0.10130542516708374,-0.8448190689086914,0.5350520610809326],"type":"VEC3"},{"bufferView":2,"componentType":5126,"count":24,"max":[0.6875,0.25],"min":[0.59375,0.12109375],"type":"VEC2"},{"bufferView":3,"componentType":5126,"count":24,"max":[1,1,1],"min":[1,1,1],"type":"VEC3"},{"bufferView":4,"componentType":5126,"count":24,"max":[-1,0],"min":[-1,0],"type":"VEC2"},{"bufferView":5,"componentType":5123,"count":36,"max":[23],"min":[0],"type":"SCALAR"}],"materials":[{"pbrMetallicRoughness":{"metallicFactor":0.5,"roughnessFactor":0.5,"baseColorTexture":{"index":0}},"alphaMode":"MASK","alphaCutoff":0.01,"doubleSided":true}],"textures":[{"sampler":0,"source":0,"name":"cockpit_albedo"}],"samplers":[{"magFilter":9728,"minFilter":9728,"wrapS":33071,"wrapT":33071}],"images":[{"mimeType":"image/png","uri":"data:image/png;base64,"}],"meshes":[{"primitives":[{"mode":4,"attributes":{"POSITION":0,"NORMAL":1,"TEXCOORD_0":2,"COLOR_0":3,"_UVANIMATION":4},"extras":{"indexNormals":[{"x":0,"y":0.4226182093130235,"z":0.9063078114840749},{"x":0,"y":0.4226182093130235,"z":0.9063078114840749},{"x":0,"y":0.4226182093130235,"z":0.9063078114840749},{"x":0,"y":0.4226182093130235,"z":0.9063078114840749},{"x":0,"y":0.4226182093130235,"z":0.9063078114840749},{"x":0,"y":0.4226182093130235,"z":0.9063078114840749},{"x":0.10130542155196615,"y":0.420444300641058,"z":0.9016450530128971},{"x":0.10130542155196615,"y":0.420444300641058,"z":0.9016450530128971},{"x":0.10130542155196615,"y":0.420444300641058,"z":0.9016450530128971},{"x":0.10130542155196615,"y":0.420444300641058,"z":0.9016450530128971},{"x":0.10130542155196615,"y":0.420444300641058,"z":0.9016450530128971},{"x":0.10130542155196615,"y":0.420444300641058,"z":0.9016450530128971},{"x":-0.10130542155196615,"y":0.420444300641058,"z":0.9016450530128971},{"x":-0.10130542155196615,"y":0.420444300641058,"z":0.9016450530128971},{"x":-0.10130542155196615,"y":0.420444300641058,"z":0.9016450530128971},{"x":-0.10130542155196615,"y":0.420444300641058,"z":0.9016450530128971},{"x":-0.10130542155196615,"y":0.420444300641058,"z":0.9016450530128971},{"x":-0.10130542155196615,"y":0.420444300641058,"z":0.9016450530128971},{"x":0,"y":0.3625558696364552,"z":0.931962038600368},{"x":0,"y":0.3625558696364552,"z":0.931962038600368},{"x":0,"y":0.3625558696364552,"z":0.931962038600368},{"x":0,"y":0.3625558696364552,"z":0.931962038600368},{"x":0,"y":0.3625558696364552,"z":0.931962038600368},{"x":0,"y":0.3625558696364552,"z":0.931962038600368},{"x":0,"y":0.3625558696364552,"z":0.931962038600368},{"x":0,"y":0.3625558696364552,"z":0.931962038600368},{"x":0,"y":0.3625558696364552,"z":0.931962038600368},{"x":0,"y":0.3625558696364552,"z":0.931962038600368},{"x":0,"y":0.3625558696364552,"z":0.931962038600368},{"x":0,"y":0.3625558696364552,"z":0.931962038600368},{"x":-0.000015204441692886524,"y":-0.8448154099726184,"z":0.5350578686848946},{"x":-0.000015204441692886524,"y":-0.8448154099726184,"z":0.5350578686848946},{"x":0,"y":-0.8448190755542286,"z":0.5350520811843448},{"x":-0.000015204441692886524,"y":-0.8448154099726184,"z":0.5350578686848946},{"x":-0.000030408883381544588,"y":-0.8448117441560593,"z":0.5350636560366411},{"x":-0.000015204441692886524,"y":-0.8448154099726184,"z":0.5350578686848946}]},"indices":5,"material":0}]}]}