{"asset":{"version":"2.0","generator":"THREE.GLTFExporter"},"scenes":[{"name":"default","nodes":[1]}],"scene":0,"nodes":[{"matrix":[1,0,0,0,0,0.992546151641322,-0.12186934340514749,0,0,0.12186934340514749,0.992546151641322,0,0,1.0625,-0.09375,1],"name":"starmap","extras":{"data":{"name":"starmap","points":[{"name":"Origin","pos":{"x":0,"y":0,"z":0}}],"billboard":{"enabled":false,"y":false},"custom":[],"instance":{"name":"starmap","uuid":"174B2278-58F1-4FDD-85FD-2AD2928E14C4","parent":"62230C45-F23A-400D-93B7-DDD04F35180C","pos":{"x":0,"y":1.065,"z":-0.095},"rot":{"x":-0.12217304763960309,"y":0,"z":0,"order":"XYZ"},"sca":{"x":1,"y":1,"z":1},"custom":[]}}},"mesh":1},{"matrix":[1,0,0,0,0,1,0,0,0,0,1,0,-0.0625,0,0,1],"name":"computer","extras":{"data":{"name":"computer","points":[{"name":"Origin","pos":{"x":0,"y":0,"z":0}}],"billboard":{"enabled":false,"y":false},"custom":[],"instance":{"name":"computer","uuid":"62230C45-F23A-400D-93B7-DDD04F35180C","parent":null,"pos":{"x":-0.06,"y":0,"z":0},"rot":{"x":0,"y":0,"z":0,"order":"XYZ"},"sca":{"x":1,"y":1,"z":1},"custom":[]}}},"mesh":0,"children":[0]}],"bufferViews":[{"buffer":0,"byteOffset":0,"byteLength":396,"target":34962,"byteStride":12},{"buffer":0,"byteOffset":396,"byteLength":396,"target":34962,"byteStride":12},{"buffer":0,"byteOffset":792,"byteLength":264,"target":34962,"byteStride":8},{"buffer":0,"byteOffset":1056,"byteLength":396,"target":34962,"byteStride":12},{"buffer":0,"byteOffset":1452,"byteLength":264,"target":34962,"byteStride":8},{"buffer":0,"byteOffset":1716,"byteLength":120,"target":34963},{"buffer":0,"byteOffset":1836,"byteLength":96,"target":34962,"byteStride":12},{"buffer":0,"byteOffset":1932,"byteLength":96,"target":34962,"byteStride":12},{"buffer":0,"byteOffset":2028,"byteLength":64,"target":34962,"byteStride":8},{"buffer":0,"byteOffset":2092,"byteLength":96,"target":34962,"byteStride":12},{"buffer":0,"byteOffset":2188,"byteLength":64,"target":34962,"byteStride":8},{"buffer":0,"byteOffset":2252,"byteLength":12,"target":34963},{"buffer":0,"byteOffset":2264,"byteLength":12,"target":34963}],"buffers":[{"byteLength":2276,"uri":"data:application/octet-stream;base64,"}],"accessors":[{"bufferView":0,"componentType":5126,"count":33,"max":[1.0625,2.516627788543701,0.59375],"min":[-1.0625,0,-0.23839429020881653],"type":"VEC3"},{"bufferView":1,"componentType":5126,"count":33,"max":[1,0.9965457320213318,0.9963884353637695],"min":[-1,-0.3713906705379486,0],"type":"VEC3"},{"bufferView":2,"componentType":5126,"count":33,"max":[0.9921875,0.9921875],"min":[0.03125,0.84375],"type":"VEC2"},{"bufferView":3,"componentType":5126,"count":33,"max":[1,1,1],"min":[1,1,1],"type":"VEC3"},{"bufferView":4,"componentType":5126,"count":33,"max":[-1,0],"min":[-1,0],"type":"VEC2"},{"bufferView":5,"componentType":5123,"count":60,"max":[32],"min":[0],"type":"SCALAR"},{"bufferView":6,"componentType":5126,"count":8,"max":[1,1.4395571947097778,0.0479273684322834],"min":[-1,-0.05952909216284752,-0.0044218734838068485],"type":"VEC3"},{"bufferView":7,"componentType":5126,"count":8,"max":[0,0.03489941731095314,0.9993908405303955],"min":[0,-0.03489949181675911,0.9993908405303955],"type":"VEC3"},{"bufferView":8,"componentType":5126,"count":8,"max":[0.25,1],"min":[0,0],"type":"VEC2"},{"bufferView":9,"componentType":5126,"count":8,"max":[1,1,1],"min":[1,1,1],"type":"VEC3"},{"bufferView":10,"componentType":5126,"count":8,"max":[-1,0],"min":[-1,0],"type":"VEC2"},{"bufferView":11,"componentType":5123,"count":6,"max":[3],"min":[0],"type":"SCALAR"},{"bufferView":12,"componentType":5123,"count":6,"max":[7],"min":[4],"type":"SCALAR"}],"materials":[{"pbrMetallicRoughness":{"metallicFactor":0.5,"roughnessFactor":0.5,"baseColorTexture":{"index":0}},"alphaMode":"MASK","alphaCutoff":0.01,"doubleSided":true},{"pbrMetallicRoughness":{"metallicFactor":0.5,"roughnessFactor":0.5,"baseColorTexture":{"index":1}},"alphaMode":"MASK","alphaCutoff":0.01}],"textures":[{"sampler":0,"source":0,"name":"0"},{"sampler":1,"source":1,"name":"8"}],"samplers":[{"magFilter":9728,"minFilter":9728,"wrapS":33071,"wrapT":33071},{"magFilter":9728,"minFilter":9728,"wrapS":33071,"wrapT":33071}],"images":[{"mimeType":"image/png","uri":"data:image/png;base64,"},{"mimeType":"image/png","uri":"data:image/png;base64,"}],"meshes":[{"primitives":[{"mode":4,"attributes":{"POSITION":0,"NORMAL":1,"TEXCOORD_0":2,"COLOR_0":3,"_UVANIMATION":4},"extras":{"indexNormals":[{"x":0,"y":-0.3713906763541037,"z":0.9284766908852593},{"x":0,"y":-0.3713906763541037,"z":0.9284766908852593},{"x":0,"y":-0.3713906763541037,"z":0.9284766908852593},{"x":0,"y":-0.3713906763541037,"z":0.9284766908852593},{"x":0,"y":-0.3713906763541037,"z":0.9284766908852593},{"x":0,"y":-0.3713906763541037,"z":0.9284766908852593},{"x":0.0004614299688449992,"y":0.08491068428132999,"z":0.9963884597772398},{"x":0.0004614299688449992,"y":0.08491068428132999,"z":0.9963884597772398},{"x":0.00046142866190370996,"y":0.08491068600936204,"z":0.9963884596305849},{"x":0.0004614299688449992,"y":0.08491068428132999,"z":0.9963884597772398},{"x":0.0004614312757862886,"y":0.08491068255329795,"z":0.9963884599238949},{"x":0.0004614299688449992,"y":0.08491068428132999,"z":0.9963884597772398},{"x":1,"y":0,"z":0},{"x":1,"y":0,"z":0},{"x":1,"y":0,"z":0},{"x":1,"y":0,"z":0},{"x":1,"y":0,"z":0},{"x":1,"y":0,"z":0},{"x":0,"y":0.9468815887204547,"z":0.32158242635789025},{"x":0,"y":0.9468815887204547,"z":0.32158242635789025},{"x":0,"y":0.9468815887204547,"z":0.32158242635789025},{"x":0,"y":0.9468815887204547,"z":0.32158242635789025},{"x":0,"y":0.9468815887204547,"z":0.32158242635789025},{"x":0,"y":0.9468815887204547,"z":0.32158242635789025},{"x":0.11574739812575115,"y":0.8944272029063931,"z":0.43197513646987235},{"x":0.11574739812575115,"y":0.8944272029063931,"z":0.43197513646987235},{"x":0.11574743251104928,"y":0.8944271776754633,"z":0.4319751794983196},{"x":0.11574739812575115,"y":0.8944272029063931,"z":0.43197513646987235},{"x":0.11574736374045255,"y":0.8944272281373197,"z":0.43197509344142343},{"x":0.11574739812575115,"y":0.8944272029063931,"z":0.43197513646987235},{"x":-1,"y":0,"z":0},{"x":-1,"y":0,"z":0},{"x":-1,"y":0,"z":0},{"x":-1,"y":0,"z":0},{"x":-1,"y":0,"z":0},{"x":-1,"y":0,"z":0},{"x":0,"y":0.9290845455173902,"z":0.36986741851742533},{"x":0.17801873360674547,"y":0.9572208755928326,"z":0.22811735097169064},{"x":0,"y":0.9965457582448797,"z":0.08304547985373997},{"x":0,"y":0.9290845455173902,"z":0.36986741851742533},{"x":0.34637408275915865,"y":0.8659352068978967,"z":0.36080633620745695},{"x":0.17801873360674547,"y":0.9572208755928326,"z":0.22811735097169064},{"x":-0.34637408275915865,"y":0.8659352068978967,"z":0.36080633620745695},{"x":0,"y":0.9290845455173902,"z":0.36986741851742533},{"x":-0.17801873360674547,"y":0.9572208755928326,"z":0.22811735097169064},{"x":0,"y":0.9290845455173902,"z":0.36986741851742533},{"x":0,"y":0.9965457582448797,"z":0.08304547985373997},{"x":-0.17801873360674547,"y":0.9572208755928326,"z":0.22811735097169064},{"x":0,"y":0.8,"z":0.6},{"x":0.17725603980323495,"y":0.8525380276469197,"z":0.4916901542324939},{"x":0,"y":0.9290845455173902,"z":0.36986741851742533},{"x":0.17725603980323495,"y":0.8525380276469197,"z":0.4916901542324939},{"x":0.34637408275915865,"y":0.8659352068978967,"z":0.36080633620745695},{"x":0,"y":0.9290845455173902,"z":0.36986741851742533},{"x":-0.17725603980323495,"y":0.8525380276469197,"z":0.4916901542324939},{"x":0,"y":0.9290845455173902,"z":0.36986741851742533},{"x":-0.34637408275915865,"y":0.8659352068978967,"z":0.36080633620745695},{"x":-0.17725603980323495,"y":0.8525380276469197,"z":0.4916901542324939},{"x":0,"y":0.8,"z":0.6},{"x":0,"y":0.9290845455173902,"z":0.36986741851742533}]},"indices":5,"material":0}]},{"primitives":[{"mode":4,"attributes":{"POSITION":6,"NORMAL":7,"TEXCOORD_0":8,"COLOR_0":9,"_UVANIMATION":10},"extras":{"indexNormals":[{"x":0,"y":0.03489941661739146,"z":0.9993908298157264},{"x":0,"y":0.03489941661739146,"z":0.9993908298157264},{"x":0,"y":0.03489941661739146,"z":0.9993908298157264},{"x":0,"y":0.03489941661739146,"z":0.9993908298157264},{"x":0,"y":0.03489941661739146,"z":0.9993908298157264},{"x":0,"y":0.03489941661739146,"z":0.9993908298157264},{"x":0,"y":-0.03489949353567708,"z":0.9993908271296837},{"x":0,"y":-0.03489949353567708,"z":0.9993908271296837},{"x":0,"y":-0.03489949353567708,"z":0.9993908271296837},{"x":0,"y":-0.03489949353567708,"z":0.9993908271296837},{"x":0,"y":-0.03489949353567708,"z":0.9993908271296837},{"x":0,"y":-0.03489949353567708,"z":0.9993908271296837}]},"indices":11,"material":1},{"mode":4,"attributes":{"POSITION":6,"NORMAL":7,"TEXCOORD_0":8,"COLOR_0":9,"_UVANIMATION":10},"extras":{"indexNormals":[{"x":0,"y":0.03489941661739146,"z":0.9993908298157264},{"x":0,"y":0.03489941661739146,"z":0.9993908298157264},{"x":0,"y":0.03489941661739146,"z":0.9993908298157264},{"x":0,"y":0.03489941661739146,"z":0.9993908298157264},{"x":0,"y":0.03489941661739146,"z":0.9993908298157264},{"x":0,"y":0.03489941661739146,"z":0.9993908298157264},{"x":0,"y":-0.03489949353567708,"z":0.9993908271296837},{"x":0,"y":-0.03489949353567708,"z":0.9993908271296837},{"x":0,"y":-0.03489949353567708,"z":0.9993908271296837},{"x":0,"y":-0.03489949353567708,"z":0.9993908271296837},{"x":0,"y":-0.03489949353567708,"z":0.9993908271296837},{"x":0,"y":-0.03489949353567708,"z":0.9993908271296837}]},"indices":12,"material":0}]}]}