{"asset":{"version":"2.0","generator":"THREE.GLTFExporter"},"scenes":[{"name":"default","nodes":[0]}],"scene":0,"nodes":[{"name":"plant","extras":{"data":{"name":"plant","points":[{"name":"Origin","pos":{"x":0,"y":0,"z":0}}],"billboard":{"enabled":false,"y":false},"custom":[],"instances":[{"name":"plant","uuid":"415359D6-510E-4D48-BA13-F0C475E5EF05","parent":null,"pos":{"x":0,"y":0,"z":0},"rot":{"x":0,"y":0,"z":0,"order":"XYZ"},"sca":{"x":1,"y":1,"z":1},"custom":[]}]}},"mesh":0}],"bufferViews":[{"buffer":0,"byteOffset":0,"byteLength":1632,"target":34962,"byteStride":12},{"buffer":0,"byteOffset":1632,"byteLength":1632,"target":34962,"byteStride":12},{"buffer":0,"byteOffset":3264,"byteLength":1088,"target":34962,"byteStride":8},{"buffer":0,"byteOffset":4352,"byteLength":1632,"target":34962,"byteStride":12},{"buffer":0,"byteOffset":5984,"byteLength":1088,"target":34962,"byteStride":8},{"buffer":0,"byteOffset":7072,"byteLength":524,"target":34963}],"buffers":[{"byteLength":7596,"uri":"data:application/octet-stream;base64,"}],"accessors":[{"bufferView":0,"componentType":5126,"count":136,"max":[0.40061119198799133,1.500246524810791,0.41788142919540405],"min":[-0.3825252056121826,0,-0.39880192279815674],"type":"VEC3"},{"bufferView":1,"componentType":5126,"count":136,"max":[1,0.9997681975364685,1],"min":[-1,-0.3959599435329437,-1],"type":"VEC3"},{"bufferView":2,"componentType":5126,"count":136,"max":[0.96484375,0.99609375],"min":[0.73046875,0.9375],"type":"VEC2"},{"bufferView":3,"componentType":5126,"count":136,"max":[1,1,1],"min":[1,1,1],"type":"VEC3"},{"bufferView":4,"componentType":5126,"count":136,"max":[-1,0],"min":[-1,0],"type":"VEC2"},{"bufferView":5,"componentType":5123,"count":261,"max":[135],"min":[0],"type":"SCALAR"}],"materials":[{"pbrMetallicRoughness":{"metallicFactor":0.5,"roughnessFactor":0.5,"baseColorTexture":{"index":0}},"alphaMode":"MASK","alphaCutoff":0.01,"doubleSided":true}],"textures":[{"sampler":0,"source":0,"name":"0"}],"samplers":[{"magFilter":9728,"minFilter":9728,"wrapS":33071,"wrapT":33071}],"images":[{"mimeType":"image/png","uri":"data:image/png;base64,"}],"meshes":[{"primitives":[{"mode":4,"attributes":{"POSITION":0,"NORMAL":1,"TEXCOORD_0":2,"COLOR_0":3,"_UVANIMATION":4},"extras":{"indexNormals":[{"x":0,"y":-0.2576626505603324,"z":0.9662349396012464},{"x":0,"y":-0.12993279108591815,"z":0.9915228034698057},{"x":0,"y":-0.12993279108591815,"z":0.9915228034698057},{"x":0,"y":-0.2576626505603324,"z":0.9662349396012464},{"x":0,"y":-0.2576626505603324,"z":0.9662349396012464},{"x":0,"y":-0.12993279108591815,"z":0.9915228034698057},{"x":0.9662349396012464,"y":-0.2576626505603324,"z":0},{"x":0.9915228034698057,"y":-0.12993279108591815,"z":0},{"x":0.9915228034698057,"y":-0.12993279108591815,"z":0},{"x":0.9662349396012464,"y":-0.2576626505603324,"z":0},{"x":0.9662349396012464,"y":-0.2576626505603324,"z":0},{"x":0.9915228034698057,"y":-0.12993279108591815,"z":0},{"x":0,"y":-0.2576626505603324,"z":-0.9662349396012464},{"x":0,"y":-0.12993279108591815,"z":-0.9915228034698057},{"x":0,"y":-0.12993279108591815,"z":-0.9915228034698057},{"x":0,"y":-0.2576626505603324,"z":-0.9662349396012464},{"x":0,"y":-0.2576626505603324,"z":-0.9662349396012464},{"x":0,"y":-0.12993279108591815,"z":-0.9915228034698057},{"x":0.9662349396012464,"y":0.2576626505603324,"z":0},{"x":0.9662349396012464,"y":0.2576626505603324,"z":0},{"x":0.9662349396012464,"y":0.2576626505603324,"z":0},{"x":0.9662349396012464,"y":0.2576626505603324,"z":0},{"x":0.9662349396012464,"y":0.2576626505603324,"z":0},{"x":0.9662349396012464,"y":0.2576626505603324,"z":0},{"x":-0.14890200088527852,"y":0.5956080035411141,"z":0.789353723149596},{"x":0,"y":-0.12993279108591815,"z":0.9915228034698057},{"x":0,"y":-0.12993279108591815,"z":0.9915228034698057},{"x":-0.14890200088527852,"y":0.5956080035411141,"z":0.789353723149596},{"x":0,"y":0,"z":1},{"x":0,"y":-0.12993279108591815,"z":0.9915228034698057},{"x":1,"y":0,"z":0},{"x":0.9915228034698057,"y":-0.12993279108591815,"z":0},{"x":0.9915228034698057,"y":-0.12993279108591815,"z":0},{"x":1,"y":0,"z":0},{"x":1,"y":0,"z":0},{"x":0.9915228034698057,"y":-0.12993279108591815,"z":0},{"x":0,"y":0,"z":-1},{"x":0,"y":-0.12993279108591815,"z":-0.9915228034698057},{"x":0,"y":-0.12993279108591815,"z":-0.9915228034698057},{"x":0,"y":0,"z":-1},{"x":0,"y":0,"z":-1},{"x":0,"y":-0.12993279108591815,"z":-0.9915228034698057},{"x":-1,"y":0,"z":0},{"x":-1,"y":0,"z":0},{"x":-1,"y":0,"z":0},{"x":-1,"y":0,"z":0},{"x":-0.6071604315450313,"y":0.7708551159305386,"z":0.19271377898263464},{"x":-1,"y":0,"z":0},{"x":-0.42862676526492294,"y":0.5441875288026217,"z":0.7212066483291903},{"x":-0.015223545819980353,"y":0.999768216790939,"z":0.015223545819980344},{"x":-0.35052780503808717,"y":0.9347408134348989,"z":0.05822258663306158},{"x":-0.42862676526492294,"y":0.5441875288026217,"z":0.7212066483291903},{"x":-0.05822258663306158,"y":0.9347408134348989,"z":0.35052780503808717},{"x":-0.015223545819980353,"y":0.999768216790939,"z":0.015223545819980344},{"x":-0.05822258663306158,"y":0.9347408134348989,"z":0.35052780503808717},{"x":0.1812366279990531,"y":0.9665953493282832,"z":0.1812366279990531},{"x":-0.015223545819980353,"y":0.999768216790939,"z":0.015223545819980344},{"x":0.1812366279990531,"y":0.9665953493282832,"z":0.1812366279990531},{"x":0.3511234415883917,"y":0.9363291775690445,"z":0},{"x":-0.015223545819980353,"y":0.999768216790939,"z":0.015223545819980344},{"x":-0.35052780503808717,"y":0.9347408134348989,"z":0.05822258663306158},{"x":-0.015223545819980353,"y":0.999768216790939,"z":0.015223545819980344},{"x":-0.1812366279990531,"y":0.9665953493282832,"z":-0.1812366279990531},{"x":-0.015223545819980353,"y":0.999768216790939,"z":0.015223545819980344},{"x":0,"y":0.9363291775690445,"z":-0.3511234415883917},{"x":-0.1812366279990531,"y":0.9665953493282832,"z":-0.1812366279990531},{"x":-0.015223545819980353,"y":0.999768216790939,"z":0.015223545819980344},{"x":0.1812366279990531,"y":0.9665953493282832,"z":-0.1812366279990531},{"x":0,"y":0.9363291775690445,"z":-0.3511234415883917},{"x":-0.015223545819980353,"y":0.999768216790939,"z":0.015223545819980344},{"x":0.3511234415883917,"y":0.9363291775690445,"z":0},{"x":0.1812366279990531,"y":0.9665953493282832,"z":-0.1812366279990531},{"x":0.5870474243369503,"y":-0.2744757272729706,"z":0.7616025188491216},{"x":0.610958704766961,"y":-0.08786227161772209,"z":0.786771683714946},{"x":0.7266651378182883,"y":0.06940772388980587,"z":0.6834766604237225},{"x":0.5870474243369503,"y":-0.2744757272729706,"z":0.7616025188491216},{"x":0.3352474685179921,"y":-0.1980198310831675,"z":0.9210848393878122},{"x":0.610958704766961,"y":-0.08786227161772209,"z":0.786771683714946},{"x":0.7266651378182883,"y":0.06940772388980587,"z":0.6834766604237225},{"x":0.6747795879849408,"y":0.20934176527944168,"z":0.7077065302429819},{"x":0.7873216839733413,"y":0.1180127567388566,"z":0.6051425907935066},{"x":0.7266651378182883,"y":0.06940772388980587,"z":0.6834766604237225},{"x":0.610958704766961,"y":-0.08786227161772209,"z":0.786771683714946},{"x":0.6747795879849408,"y":0.20934176527944168,"z":0.7077065302429819},{"x":0.8850079685225846,"y":-0.2021536378689687,"z":0.41939814299525635},{"x":0.8472654612128845,"y":-0.10177406671911156,"z":0.5213283778763362},{"x":0.8298066371165778,"y":-0.39595995748344504,"z":0.39323867697237597},{"x":0.7873216839733413,"y":0.1180127567388566,"z":0.6051425907935066},{"x":0.8472654612128845,"y":-0.10177406671911156,"z":0.5213283778763362},{"x":0.8850079685225846,"y":-0.2021536378689687,"z":0.41939814299525635},{"x":0.7873216839733413,"y":0.1180127567388566,"z":0.6051425907935066},{"x":0.6747795879849408,"y":0.20934176527944168,"z":0.7077065302429819},{"x":0.8472654612128845,"y":-0.10177406671911156,"z":0.5213283778763362},{"x":-0.02896084954857988,"y":0.7591858730047026,"z":0.6502292514363776},{"x":0.21231204184640315,"y":0.7840014544960069,"z":0.5833226519132929},{"x":0.15609775036238926,"y":0.8897750415294284,"z":0.4288751191233934},{"x":-0.02896084954857988,"y":0.7591858730047026,"z":0.6502292514363776},{"x":0.26012929643238925,"y":0.649259083969186,"z":0.7146995109982122},{"x":0.21231204184640315,"y":0.7840014544960069,"z":0.5833226519132929},{"x":0.26012929643238925,"y":0.649259083969186,"z":0.7146995109982122},{"x":0.4401445397921918,"y":0.759185890632845,"z":0.4794888607205944},{"x":0.21231204184640315,"y":0.7840014544960069,"z":0.5833226519132929},{"x":0.4401445397921918,"y":0.759185890632845,"z":0.4794888607205944},{"x":0.15609775036238926,"y":0.8897750415294284,"z":0.4288751191233934},{"x":0.21231204184640315,"y":0.7840014544960069,"z":0.5833226519132929},{"x":0.5177751445099668,"y":0.7099159575553483,"z":0.47741829974976424},{"x":0.3574587764855205,"y":0.8912723446408888,"z":0.27902836915232676},{"x":0.34083491003656063,"y":0.7918525314622331,"z":0.506755495793803},{"x":0.3574587764855205,"y":0.8912723446408888,"z":0.27902836915232676},{"x":0.14957885637234766,"y":0.8431910945068166,"z":0.5163864288212241},{"x":0.34083491003656063,"y":0.7918525314622331,"z":0.506755495793803},{"x":0.30313215081753325,"y":0.643535406208895,"z":0.7028321848750869},{"x":0.34083491003656063,"y":0.7918525314622331,"z":0.506755495793803},{"x":0.14957885637234766,"y":0.8431910945068166,"z":0.5163864288212241},{"x":0.30313215081753325,"y":0.643535406208895,"z":0.7028321848750869},{"x":0.5177751445099668,"y":0.7099159575553483,"z":0.47741829974976424},{"x":0.34083491003656063,"y":0.7918525314622331,"z":0.506755495793803},{"x":0.2670948025499505,"y":0.6812085612219123,"z":0.681626923300991},{"x":0.5349776181738103,"y":0.673847733128816,"z":0.5096353408175623},{"x":0.31503357574464347,"y":0.7903668666265632,"z":0.5254275043166778},{"x":0.5349776181738103,"y":0.673847733128816,"z":0.5096353408175623},{"x":0.35098561558845437,"y":0.8693857367650127,"z":0.34781825478193296},{"x":0.31503357574464347,"y":0.7903668666265632,"z":0.5254275043166778},{"x":0.07528982752982646,"y":0.8577583247006506,"z":0.5085096835629211},{"x":0.31503357574464347,"y":0.7903668666265632,"z":0.5254275043166778},{"x":0.35098561558845437,"y":0.8693857367650127,"z":0.34781825478193296},{"x":0.07528982752982646,"y":0.8577583247006506,"z":0.5085096835629211},{"x":0.2670948025499505,"y":0.6812085612219123,"z":0.681626923300991},{"x":0.31503357574464347,"y":0.7903668666265632,"z":0.5254275043166778},{"x":-0.2881673338807938,"y":0.6897318242825038,"z":-0.6642511560064948},{"x":-0.5094570047389365,"y":0.6863271692255957,"z":-0.5190458333376847},{"x":-0.32875742631824617,"y":0.7775884079714062,"z":-0.5359802444391928},{"x":-0.5094570047389365,"y":0.6863271692255957,"z":-0.5190458333376847},{"x":-0.36098179432749994,"y":0.8456221001252556,"z":-0.39321165794499346},{"x":-0.32875742631824617,"y":0.7775884079714062,"z":-0.5359802444391928},{"x":-0.13520706130956553,"y":0.8366077704847443,"z":-0.5308544894192538},{"x":-0.32875742631824617,"y":0.7775884079714062,"z":-0.5359802444391928},{"x":-0.36098179432749994,"y":0.8456221001252556,"z":-0.39321165794499346},{"x":-0.13520706130956553,"y":0.8366077704847443,"z":-0.5308544894192538},{"x":-0.2881673338807938,"y":0.6897318242825038,"z":-0.6642511560064948},{"x":-0.32875742631824617,"y":0.7775884079714062,"z":-0.5359802444391928},{"x":-0.5177753950883569,"y":0.7099158547725368,"z":-0.47741818082648924},{"x":-0.35745875832946655,"y":0.8912724666038772,"z":-0.2790280028373438},{"x":-0.34083490783889714,"y":0.7918525767838025,"z":-0.5067554264527444},{"x":-0.35745875832946655,"y":0.8912724666038772,"z":-0.2790280028373438},{"x":-0.14957855884488824,"y":0.8431911940550678,"z":-0.5163863524550927},{"x":-0.34083490783889714,"y":0.7918525767838025,"z":-0.5067554264527444},{"x":-0.30313211552774905,"y":0.6435352602626793,"z":-0.7028323337285479},{"x":-0.34083490783889714,"y":0.7918525767838025,"z":-0.5067554264527444},{"x":-0.14957855884488824,"y":0.8431911940550678,"z":-0.5163863524550927},{"x":-0.30313211552774905,"y":0.6435352602626793,"z":-0.7028323337285479},{"x":-0.5177753950883569,"y":0.7099158547725368,"z":-0.47741818082648924},{"x":-0.34083490783889714,"y":0.7918525767838025,"z":-0.5067554264527444},{"x":-0.26012931461831446,"y":0.649259158690473,"z":-0.7146994364995297},{"x":-0.4401445375412241,"y":0.7591859350383449,"z":-0.4794887924785894},{"x":-0.21231207089429324,"y":0.7840014810592214,"z":-0.5833226056390443},{"x":-0.4401445375412241,"y":0.7591859350383449,"z":-0.4794887924785894},{"x":-0.1560977936053855,"y":0.8897750359202835,"z":-0.4288751150213646},{"x":-0.21231207089429324,"y":0.7840014810592214,"z":-0.5833226056390443},{"x":0.028960786782305854,"y":0.7591858887516483,"z":-0.6502292358463434},{"x":-0.21231207089429324,"y":0.7840014810592214,"z":-0.5833226056390443},{"x":-0.1560977936053855,"y":0.8897750359202835,"z":-0.4288751150213646},{"x":0.028960786782305854,"y":0.7591858887516483,"z":-0.6502292358463434},{"x":-0.26012931461831446,"y":0.649259158690473,"z":-0.7146994364995297},{"x":-0.21231207089429324,"y":0.7840014810592214,"z":-0.5833226056390443},{"x":-0.6775225759335763,"y":0.6856241148744109,"z":0.2662381118529278},{"x":-0.5030753739752117,"y":0.6763234859691747,"z":0.5380536315519154},{"x":-0.5205649127997546,"y":0.7935061219560846,"z":0.31521453960754936},{"x":-0.5030753739752117,"y":0.6763234859691747,"z":0.5380536315519154},{"x":-0.3423804949150267,"y":0.8710599770958127,"z":0.3521790922294846},{"x":-0.5205649127997546,"y":0.7935061219560846,"z":0.31521453960754936},{"x":-0.5048737337274168,"y":0.860175330513436,"z":0.07211736107373104},{"x":-0.5205649127997546,"y":0.7935061219560846,"z":0.31521453960754936},{"x":-0.3423804949150267,"y":0.8710599770958127,"z":0.3521790922294846},{"x":-0.5048737337274168,"y":0.860175330513436,"z":0.07211736107373104},{"x":-0.6775225759335763,"y":0.6856241148744109,"z":0.2662381118529278},{"x":-0.5205649127997546,"y":0.7935061219560846,"z":0.31521453960754936},{"x":-0.03344696046935188,"y":0.92835847626767,"z":0.37017811979820153},{"x":0.2315228104765332,"y":0.9563323926009976,"z":0.1783971498962319},{"x":-0.02657311966912634,"y":0.984783771652425,"z":0.17174047979749785},{"x":0.2315228104765332,"y":0.9563323926009976,"z":0.1783971498962319},{"x":-0.01851992284075768,"y":0.9992099337666,"z":-0.035164196565811885},{"x":-0.02657311966912634,"y":0.984783771652425,"z":0.17174047979749785},{"x":-0.2828777457708871,"y":0.9467940185261217,"z":0.15349679941529518},{"x":-0.02657311966912634,"y":0.984783771652425,"z":0.17174047979749785},{"x":-0.01851992284075768,"y":0.9992099337666,"z":-0.035164196565811885},{"x":-0.2828777457708871,"y":0.9467940185261217,"z":0.15349679941529518},{"x":-0.03344696046935188,"y":0.92835847626767,"z":0.37017811979820153},{"x":-0.02657311966912634,"y":0.984783771652425,"z":0.17174047979749785},{"x":-0.7109399538708194,"y":0.6539167973814036,"z":0.2587609013985801},{"x":-0.47351104716949466,"y":0.7617124133170713,"z":0.4422459582711093},{"x":-0.5791940260910349,"y":0.7874602929850621,"z":0.21080931457679392},{"x":-0.47351104716949466,"y":0.7617124133170713,"z":0.4422459582711093},{"x":-0.42466766188614324,"y":0.8920575243038724,"z":0.15456632971317602},{"x":-0.5791940260910349,"y":0.7874602929850621,"z":0.21080931457679392},{"x":-0.6470007476489342,"y":0.7617123914501507,"z":-0.03441315523186888},{"x":-0.5791940260910349,"y":0.7874602929850621,"z":0.21080931457679392},{"x":-0.42466766188614324,"y":0.8920575243038724,"z":0.15456632971317602},{"x":-0.6470007476489342,"y":0.7617123914501507,"z":-0.03441315523186888},{"x":-0.7109399538708194,"y":0.6539167973814036,"z":0.2587609013985801},{"x":-0.5791940260910349,"y":0.7874602929850621,"z":0.21080931457679392},{"x":0.5048736501324321,"y":0.8601753872129654,"z":-0.07211727001890526},{"x":0.5205648163470045,"y":0.7935061344463885,"z":-0.31521466745308563},{"x":0.34238028963073186,"y":0.8710600077242998,"z":-0.35217921604734004},{"x":0.5048736501324321,"y":0.8601753872129654,"z":-0.07211727001890526},{"x":0.677522572571806,"y":0.6856240742928824,"z":-0.2662382249146616},{"x":0.5205648163470045,"y":0.7935061344463885,"z":-0.31521466745308563},{"x":0.677522572571806,"y":0.6856240742928824,"z":-0.2662382249146616},{"x":0.503075212440942,"y":0.6763233640247862,"z":-0.5380539358667472},{"x":0.5205648163470045,"y":0.7935061344463885,"z":-0.31521466745308563},{"x":0.503075212440942,"y":0.6763233640247862,"z":-0.5380539358667472},{"x":0.34238028963073186,"y":0.8710600077242998,"z":-0.35217921604734004},{"x":0.5205648163470045,"y":0.7935061344463885,"z":-0.31521466745308563},{"x":0.6470007455175436,"y":0.7617124058345628,"z":0.03441287691352239},{"x":0.579194033781698,"y":0.7874602591983293,"z":-0.21080941965430572},{"x":0.4246677903590739,"y":0.8920574405953045,"z":-0.15456645984849454},{"x":0.6470007455175436,"y":0.7617124058345628,"z":0.03441287691352239},{"x":0.7109398684187896,"y":0.6539168562101633,"z":-0.2587609875094978},{"x":0.579194033781698,"y":0.7874602591983293,"z":-0.21080941965430572},{"x":0.7109398684187896,"y":0.6539168562101633,"z":-0.2587609875094978},{"x":0.4735111152232322,"y":0.7617124033205582,"z":-0.44224590262394775},{"x":0.579194033781698,"y":0.7874602591983293,"z":-0.21080941965430572},{"x":0.4735111152232322,"y":0.7617124033205582,"z":-0.44224590262394775},{"x":0.4246677903590739,"y":0.8920574405953045,"z":-0.15456645984849454},{"x":0.579194033781698,"y":0.7874602591983293,"z":-0.21080941965430572},{"x":0.6987709083114206,"y":0.6481517783527824,"z":-0.3026854636677451},{"x":0.5019170714363267,"y":0.7947074749015555,"z":-0.3413492093683167},{"x":0.5126612865934995,"y":0.8458537186460346,"z":-0.1473427700329164},{"x":0.6987709083114206,"y":0.6481517783527824,"z":-0.3026854636677451},{"x":0.47113098270887416,"y":0.7120103003021818,"z":-0.5206504867906753},{"x":0.5019170714363267,"y":0.7947074749015555,"z":-0.3413492093683167},{"x":0.47113098270887416,"y":0.7120103003021818,"z":-0.5206504867906753},{"x":0.2738432645759015,"y":0.8922807347116343,"z":-0.3589497971985482},{"x":0.5019170714363267,"y":0.7947074749015555,"z":-0.3413492093683167},{"x":0.2738432645759015,"y":0.8922807347116343,"z":-0.3589497971985482},{"x":0.5126612865934995,"y":0.8458537186460346,"z":-0.1473427700329164},{"x":0.5019170714363267,"y":0.7947074749015555,"z":-0.3413492093683167},{"x":0.08919029984682582,"y":0.8560190210269341,"z":-0.5091920325901836},{"x":-0.15858533589037213,"y":0.8860066576969776,"z":-0.4357096438652334},{"x":-0.09181069262767391,"y":0.9632973718920979,"z":-0.25224783452986105},{"x":0.08919029984682582,"y":0.8560190210269341,"z":-0.5091920325901836},{"x":-0.21724559570588314,"y":0.7723611585279908,"z":-0.5968773675921175},{"x":-0.15858533589037213,"y":0.8860066576969776,"z":-0.4357096438652334},{"x":-0.21724559570588314,"y":0.7723611585279908,"z":-0.5968773675921175},{"x":-0.3956260576012847,"y":0.8560190117793262,"z":-0.3327333377033489},{"x":-0.15858533589037213,"y":0.8860066576969776,"z":-0.4357096438652334},{"x":-0.3956260576012847,"y":0.8560190117793262,"z":-0.3327333377033489},{"x":-0.09181069262767391,"y":0.9632973718920979,"z":-0.25224783452986105},{"x":-0.15858533589037213,"y":0.8860066576969776,"z":-0.4357096438652334},{"x":0.03113030311510024,"y":0.5820821243163878,"z":0.8125338791578375},{"x":0.03113030311510024,"y":0.5820821243163878,"z":0.8125338791578375},{"x":-0.044709976751897244,"y":0.7141989588274616,"z":0.698513324990021},{"x":0.03113030311510024,"y":0.5820821243163878,"z":0.8125338791578375},{"x":0.10584343898274634,"y":0.42888967190570276,"z":0.8971347812658501},{"x":0.03113030311510024,"y":0.5820821243163878,"z":0.8125338791578375},{"x":0.36732290363097336,"y":0.8531537254506907,"z":0.3704087002457129},{"x":0.3412139570385517,"y":0.9234511601646985,"z":0.17553059651401345},{"x":0.3412139570385517,"y":0.9234511601646985,"z":0.17553059651401345},{"x":0.3412139570385517,"y":0.9234511601646985,"z":0.17553059651401345},{"x":0.3002277810594388,"y":0.9534853100576108,"z":-0.02700079599692151},{"x":0.3412139570385517,"y":0.9234511601646985,"z":0.17553059651401345}]},"indices":5,"material":0}]}]}