{"asset":{"version":"2.0","generator":"THREE.GLTFExporter"},"scenes":[{"name":"default","nodes":[0]}],"scene":0,"nodes":[{"name":"plant","extras":{"data":{"name":"plant","points":[{"name":"Origin","pos":{"x":0,"y":0,"z":0}}],"billboard":{"enabled":false,"y":false},"custom":[],"instances":[{"name":"plant","uuid":"415359D6-510E-4D48-BA13-F0C475E5EF05","parent":null,"pos":{"x":0,"y":0,"z":0},"rot":{"x":0,"y":0,"z":0,"order":"XYZ"},"sca":{"x":1,"y":1,"z":1},"custom":[]}]}},"mesh":0}],"bufferViews":[{"buffer":0,"byteOffset":0,"byteLength":1848,"target":34962,"byteStride":12},{"buffer":0,"byteOffset":1848,"byteLength":1848,"target":34962,"byteStride":12},{"buffer":0,"byteOffset":3696,"byteLength":1232,"target":34962,"byteStride":8},{"buffer":0,"byteOffset":4928,"byteLength":1848,"target":34962,"byteStride":12},{"buffer":0,"byteOffset":6776,"byteLength":1232,"target":34962,"byteStride":8},{"buffer":0,"byteOffset":8008,"byteLength":596,"target":34963}],"buffers":[{"byteLength":8604,"uri":"data:application/octet-stream;base64,"}],"accessors":[{"bufferView":0,"componentType":5126,"count":154,"max":[0.456681489944458,1.7942308187484741,0.485582560300827],"min":[-0.4383315443992615,0,-0.4672147035598755],"type":"VEC3"},{"bufferView":1,"componentType":5126,"count":154,"max":[1,0.9997681975364685,1],"min":[-1,-0.34781643748283386,-1],"type":"VEC3"},{"bufferView":2,"componentType":5126,"count":154,"max":[0.96484375,0.99609375],"min":[0.73046875,0.9375],"type":"VEC2"},{"bufferView":3,"componentType":5126,"count":154,"max":[1,1,1],"min":[1,1,1],"type":"VEC3"},{"bufferView":4,"componentType":5126,"count":154,"max":[-1,0],"min":[-1,0],"type":"VEC2"},{"bufferView":5,"componentType":5123,"count":297,"max":[153],"min":[0],"type":"SCALAR"}],"materials":[{"pbrMetallicRoughness":{"metallicFactor":0.5,"roughnessFactor":0.5,"baseColorTexture":{"index":0}},"alphaMode":"MASK","alphaCutoff":0.01,"doubleSided":true}],"textures":[{"sampler":0,"source":0,"name":"0"}],"samplers":[{"magFilter":9728,"minFilter":9728,"wrapS":33071,"wrapT":33071}],"images":[{"mimeType":"image/png","uri":"data:image/png;base64,"}],"meshes":[{"primitives":[{"mode":4,"attributes":{"POSITION":0,"NORMAL":1,"TEXCOORD_0":2,"COLOR_0":3,"_UVANIMATION":4},"extras":{"indexNormals":[{"x":0,"y":-0.2576626505603324,"z":0.9662349396012464},{"x":0,"y":-0.12993279108591815,"z":0.9915228034698057},{"x":0,"y":-0.12993279108591815,"z":0.9915228034698057},{"x":0,"y":-0.2576626505603324,"z":0.9662349396012464},{"x":0,"y":-0.2576626505603324,"z":0.9662349396012464},{"x":0,"y":-0.12993279108591815,"z":0.9915228034698057},{"x":0.9662349396012464,"y":-0.2576626505603324,"z":0},{"x":0.9915228034698057,"y":-0.12993279108591815,"z":0},{"x":0.9915228034698057,"y":-0.12993279108591815,"z":0},{"x":0.9662349396012464,"y":-0.2576626505603324,"z":0},{"x":0.9662349396012464,"y":-0.2576626505603324,"z":0},{"x":0.9915228034698057,"y":-0.12993279108591815,"z":0},{"x":0,"y":-0.2576626505603324,"z":-0.9662349396012464},{"x":0,"y":-0.12993279108591815,"z":-0.9915228034698057},{"x":0,"y":-0.12993279108591815,"z":-0.9915228034698057},{"x":0,"y":-0.2576626505603324,"z":-0.9662349396012464},{"x":0,"y":-0.2576626505603324,"z":-0.9662349396012464},{"x":0,"y":-0.12993279108591815,"z":-0.9915228034698057},{"x":0.9662349396012464,"y":0.2576626505603324,"z":0},{"x":0.9662349396012464,"y":0.2576626505603324,"z":0},{"x":0.9662349396012464,"y":0.2576626505603324,"z":0},{"x":0.9662349396012464,"y":0.2576626505603324,"z":0},{"x":0.9662349396012464,"y":0.2576626505603324,"z":0},{"x":0.9662349396012464,"y":0.2576626505603324,"z":0},{"x":-0.14890200088527852,"y":0.5956080035411141,"z":0.789353723149596},{"x":0,"y":-0.12993279108591815,"z":0.9915228034698057},{"x":0,"y":-0.12993279108591815,"z":0.9915228034698057},{"x":-0.14890200088527852,"y":0.5956080035411141,"z":0.789353723149596},{"x":0,"y":0,"z":1},{"x":0,"y":-0.12993279108591815,"z":0.9915228034698057},{"x":1,"y":0,"z":0},{"x":0.9915228034698057,"y":-0.12993279108591815,"z":0},{"x":0.9915228034698057,"y":-0.12993279108591815,"z":0},{"x":1,"y":0,"z":0},{"x":1,"y":0,"z":0},{"x":0.9915228034698057,"y":-0.12993279108591815,"z":0},{"x":0,"y":0,"z":-1},{"x":0,"y":-0.12993279108591815,"z":-0.9915228034698057},{"x":0,"y":-0.12993279108591815,"z":-0.9915228034698057},{"x":0,"y":0,"z":-1},{"x":0,"y":0,"z":-1},{"x":0,"y":-0.12993279108591815,"z":-0.9915228034698057},{"x":-1,"y":0,"z":0},{"x":-1,"y":0,"z":0},{"x":-1,"y":0,"z":0},{"x":-1,"y":0,"z":0},{"x":-0.6071604315450313,"y":0.7708551159305386,"z":0.19271377898263464},{"x":-1,"y":0,"z":0},{"x":-0.42862676526492294,"y":0.5441875288026217,"z":0.7212066483291903},{"x":-0.015223545819980353,"y":0.999768216790939,"z":0.015223545819980344},{"x":-0.35052780503808717,"y":0.9347408134348989,"z":0.05822258663306158},{"x":-0.42862676526492294,"y":0.5441875288026217,"z":0.7212066483291903},{"x":-0.05822258663306158,"y":0.9347408134348989,"z":0.35052780503808717},{"x":-0.015223545819980353,"y":0.999768216790939,"z":0.015223545819980344},{"x":-0.05822258663306158,"y":0.9347408134348989,"z":0.35052780503808717},{"x":0.1812366279990531,"y":0.9665953493282832,"z":0.1812366279990531},{"x":-0.015223545819980353,"y":0.999768216790939,"z":0.015223545819980344},{"x":0.1812366279990531,"y":0.9665953493282832,"z":0.1812366279990531},{"x":0.3511234415883917,"y":0.9363291775690445,"z":0},{"x":-0.015223545819980353,"y":0.999768216790939,"z":0.015223545819980344},{"x":-0.35052780503808717,"y":0.9347408134348989,"z":0.05822258663306158},{"x":-0.015223545819980353,"y":0.999768216790939,"z":0.015223545819980344},{"x":-0.1812366279990531,"y":0.9665953493282832,"z":-0.1812366279990531},{"x":-0.015223545819980353,"y":0.999768216790939,"z":0.015223545819980344},{"x":0,"y":0.9363291775690445,"z":-0.3511234415883917},{"x":-0.1812366279990531,"y":0.9665953493282832,"z":-0.1812366279990531},{"x":-0.015223545819980353,"y":0.999768216790939,"z":0.015223545819980344},{"x":0.1812366279990531,"y":0.9665953493282832,"z":-0.1812366279990531},{"x":0,"y":0.9363291775690445,"z":-0.3511234415883917},{"x":-0.015223545819980353,"y":0.999768216790939,"z":0.015223545819980344},{"x":0.3511234415883917,"y":0.9363291775690445,"z":0},{"x":0.1812366279990531,"y":0.9665953493282832,"z":-0.1812366279990531},{"x":0.6008063705057058,"y":-0.2866806467252979,"z":0.7462210878505949},{"x":0.6233220131080167,"y":-0.1072350837335211,"z":0.7745775008297325},{"x":0.7415955667880386,"y":0.04251799318432282,"z":0.669498495574042},{"x":0.6008063705057058,"y":-0.2866806467252979,"z":0.7462210878505949},{"x":0.33463819307232323,"y":-0.20664204298144545,"z":0.9194108688773183},{"x":0.6233220131080167,"y":-0.1072350837335211,"z":0.7745775008297325},{"x":0.7415955667880386,"y":0.04251799318432282,"z":0.669498495574042},{"x":0.6855802277230308,"y":0.1826618728207117,"z":0.7047087281798541},{"x":0.7942130761634472,"y":0.10259633767444729,"z":0.5989153372111832},{"x":0.7415955667880386,"y":0.04251799318432282,"z":0.669498495574042},{"x":0.6233220131080167,"y":-0.1072350837335211,"z":0.7745775008297325},{"x":0.6855802277230308,"y":0.1826618728207117,"z":0.7047087281798541},{"x":0.8927611095226469,"y":-0.17668803743998907,"z":0.4144381000215804},{"x":0.8531321410707902,"y":-0.08927096093104234,"z":0.5140002387221406},{"x":0.8503988807051913,"y":-0.3478164376699559,"z":0.39477268064284743},{"x":0.7942130761634472,"y":0.10259633767444729,"z":0.5989153372111832},{"x":0.8531321410707902,"y":-0.08927096093104234,"z":0.5140002387221406},{"x":0.8927611095226469,"y":-0.17668803743998907,"z":0.4144381000215804},{"x":0.7942130761634472,"y":0.10259633767444729,"z":0.5989153372111832},{"x":0.6855802277230308,"y":0.1826618728207117,"z":0.7047087281798541},{"x":0.8531321410707902,"y":-0.08927096093104234,"z":0.5140002387221406},{"x":-0.03341709811757658,"y":0.7171594331816917,"z":0.6961074952562389},{"x":0.23220754494942872,"y":0.7438255398949967,"z":0.6267401553023995},{"x":0.17593654200775968,"y":0.8621550946167322,"z":0.4751156975019511},{"x":-0.03341709811757658,"y":0.7171594331816917,"z":0.6961074952562389},{"x":0.2786702984928531,"y":0.5974926420254526,"z":0.7518945454406147},{"x":0.23220754494942872,"y":0.7438255398949967,"z":0.6267401553023995},{"x":0.2786702984928531,"y":0.5974926420254526,"z":0.7518945454406147},{"x":0.48010662183723846,"y":0.7139166259632692,"z":0.5097260860906143},{"x":0.23220754494942872,"y":0.7438255398949967,"z":0.6267401553023995},{"x":0.48010662183723846,"y":0.7139166259632692,"z":0.5097260860906143},{"x":0.17593654200775968,"y":0.8621550946167322,"z":0.4751156975019511},{"x":0.23220754494942872,"y":0.7438255398949967,"z":0.6267401553023995},{"x":0.5601324951254502,"y":0.6597123987328116,"z":0.5010300778024579},{"x":0.39906473093927575,"y":0.8634186815734645,"z":0.3086349313190318},{"x":0.37340300900332934,"y":0.752779095923999,"z":0.5421197520909066},{"x":0.39906473093927575,"y":0.8634186815734645,"z":0.3086349313190318},{"x":0.16814911877100944,"y":0.8121272353708233,"z":0.5587264334407999},{"x":0.37340300900332934,"y":0.752779095923999,"z":0.5421197520909066},{"x":0.32277468358230105,"y":0.5919973440100247,"z":0.7384819891665755},{"x":0.37340300900332934,"y":0.752779095923999,"z":0.5421197520909066},{"x":0.16814911877100944,"y":0.8121272353708233,"z":0.5587264334407999},{"x":0.32277468358230105,"y":0.5919973440100247,"z":0.7384819891665755},{"x":0.5601324951254502,"y":0.6597123987328116,"z":0.5010300778024579},{"x":0.37340300900332934,"y":0.752779095923999,"z":0.5421197520909066},{"x":0.28432646245162824,"y":0.6318721466448352,"z":0.7210381772445832},{"x":0.574676237845097,"y":0.6206882651010311,"z":0.5333791327208793},{"x":0.3425816879004493,"y":0.7509737173152179,"z":0.564514183185013},{"x":0.574676237845097,"y":0.6206882651010311,"z":0.5333791327208793},{"x":0.38676021279142614,"y":0.839137738990959,"z":0.38244528079539947},{"x":0.3425816879004493,"y":0.7509737173152179,"z":0.564514183185013},{"x":0.08528345181884522,"y":0.8274385781962607,"z":0.5550424597798023},{"x":0.3425816879004493,"y":0.7509737173152179,"z":0.564514183185013},{"x":0.38676021279142614,"y":0.839137738990959,"z":0.38244528079539947},{"x":0.08528345181884522,"y":0.8274385781962607,"z":0.5550424597798023},{"x":0.28432646245162824,"y":0.6318721466448352,"z":0.7210381772445832},{"x":0.3425816879004493,"y":0.7509737173152179,"z":0.564514183185013},{"x":-0.30855941659602987,"y":0.6402876603121918,"z":-0.7034364210657967},{"x":-0.5487293666185575,"y":0.6337717921955787,"z":-0.5451874885097795},{"x":-0.35822643078635674,"y":0.7353043163303464,"z":-0.5753271996629653},{"x":-0.5487293666185575,"y":0.6337717921955787,"z":-0.5451874885097795},{"x":-0.3981259993418345,"y":0.8102260445594759,"z":-0.4301504915324075},{"x":-0.35822643078635674,"y":0.7353043163303464,"z":-0.5753271996629653},{"x":-0.1513967146413453,"y":0.8017474458913277,"z":-0.5781695839479447},{"x":-0.35822643078635674,"y":0.7353043163303464,"z":-0.5753271996629653},{"x":-0.3981259993418345,"y":0.8102260445594759,"z":-0.4301504915324075},{"x":-0.1513967146413453,"y":0.8017474458913277,"z":-0.5781695839479447},{"x":-0.30855941659602987,"y":0.6402876603121918,"z":-0.7034364210657967},{"x":-0.35822643078635674,"y":0.7353043163303464,"z":-0.5753271996629653},{"x":-0.5601327694501527,"y":0.6597122180703021,"z":-0.5010300089983277},{"x":-0.3990647434453629,"y":0.8634186769529513,"z":-0.30863492807474335},{"x":-0.3734030347396407,"y":0.7527790770673083,"z":-0.5421197605482742},{"x":-0.3990647434453629,"y":0.8634186769529513,"z":-0.30863492807474335},{"x":-0.16814884598389537,"y":0.8121272815539702,"z":-0.5587264484074858},{"x":-0.3734030347396407,"y":0.7527790770673083,"z":-0.5421197605482742},{"x":-0.3227747208931084,"y":0.5919973152854323,"z":-0.7384819958856252},{"x":-0.3734030347396407,"y":0.7527790770673083,"z":-0.5421197605482742},{"x":-0.16814884598389537,"y":0.8121272815539702,"z":-0.5587264484074858},{"x":-0.3227747208931084,"y":0.5919973152854323,"z":-0.7384819958856252},{"x":-0.5601327694501527,"y":0.6597122180703021,"z":-0.5010300089983277},{"x":-0.3734030347396407,"y":0.7527790770673083,"z":-0.5421197605482742},{"x":-0.278670337591668,"y":0.5974927554929977,"z":-0.7518944407827011},{"x":-0.4801066683850593,"y":0.7139166895881154,"z":-0.5097259531353538},{"x":-0.2322075939132966,"y":0.7438255866283316,"z":-0.626740081697362},{"x":-0.4801066683850593,"y":0.7139166895881154,"z":-0.5097259531353538},{"x":-0.17593660535436317,"y":0.8621550938639496,"z":-0.4751156754105542},{"x":-0.2322075939132966,"y":0.7438255866283316,"z":-0.626740081697362},{"x":0.033417048073279984,"y":0.7171594518132841,"z":-0.6961074784635906},{"x":-0.2322075939132966,"y":0.7438255866283316,"z":-0.626740081697362},{"x":-0.17593660535436317,"y":0.8621550938639496,"z":-0.4751156754105542},{"x":0.033417048073279984,"y":0.7171594518132841,"z":-0.6961074784635906},{"x":-0.278670337591668,"y":0.5974927554929977,"z":-0.7518944407827011},{"x":-0.2322075939132966,"y":0.7438255866283316,"z":-0.626740081697362},{"x":-0.7255502648509836,"y":0.6304371204516097,"z":0.275909134193397},{"x":-0.5373222573787152,"y":0.6241480829348427,"z":0.5672071599461722},{"x":-0.5681532454157405,"y":0.751370502966976,"z":0.33562517336265907},{"x":-0.5373222573787152,"y":0.6241480829348427,"z":0.5672071599461722},{"x":-0.3845121843921541,"y":0.8407004851933084,"z":0.3812782110870088},{"x":-0.5681532454157405,"y":0.751370502966976,"z":0.33562517336265907},{"x":-0.5587205792998217,"y":0.8255095159148496,"z":0.07978316489650022},{"x":-0.5681532454157405,"y":0.751370502966976,"z":0.33562517336265907},{"x":-0.3845121843921541,"y":0.8407004851933084,"z":0.3812782110870088},{"x":-0.5587205792998217,"y":0.8255095159148496,"z":0.07978316489650022},{"x":-0.7255502648509836,"y":0.6304371204516097,"z":0.275909134193397},{"x":-0.5681532454157405,"y":0.751370502966976,"z":0.33562517336265907},{"x":-0.03780511445597355,"y":0.9093104954034487,"z":0.4143973893138148},{"x":0.266462349754055,"y":0.9430720676510871,"z":0.19902987559623117},{"x":-0.03028331178191746,"y":0.9806533283610928,"z":0.19339589086076725},{"x":0.266462349754055,"y":0.9430720676510871,"z":0.19902987559623117},{"x":-0.021037699025529613,"y":0.9989721389666711,"z":-0.04015072587220413},{"x":-0.03028331178191746,"y":0.9806533283610928,"z":0.19339589086076725},{"x":-0.3242734412008994,"y":0.9304788951041892,"z":0.17045750525399067},{"x":-0.03028331178191746,"y":0.9806533283610928,"z":0.19339589086076725},{"x":-0.021037699025529613,"y":0.9989721389666711,"z":-0.04015072587220413},{"x":-0.3242734412008994,"y":0.9304788951041892,"z":0.17045750525399067},{"x":-0.03780511445597355,"y":0.9093104954034487,"z":0.4143973893138148},{"x":-0.03028331178191746,"y":0.9806533283610928,"z":0.19339589086076725},{"x":-0.7559921758850628,"y":0.5961968815924412,"z":0.2702315828692429},{"x":-0.5134016628538748,"y":0.7164168890303713,"z":0.4724040364888102},{"x":-0.6304298612901543,"y":0.7427928135927978,"z":0.2254263207093882},{"x":-0.5134016628538748,"y":0.7164168890303713,"z":0.4724040364888102},{"x":-0.47822921634232113,"y":0.8614073731410893,"z":0.17109691445136488},{"x":-0.6304298612901543,"y":0.7427928135927978,"z":0.2254263207093882},{"x":-0.6999192597469431,"y":0.7131847254456877,"z":-0.03847826953294686},{"x":-0.6304298612901543,"y":0.7427928135927978,"z":0.2254263207093882},{"x":-0.47822921634232113,"y":0.8614073731410893,"z":0.17109691445136488},{"x":-0.6999192597469431,"y":0.7131847254456877,"z":-0.03847826953294686},{"x":-0.7559921758850628,"y":0.5961968815924412,"z":0.2702315828692429},{"x":-0.6304298612901543,"y":0.7427928135927978,"z":0.2254263207093882},{"x":0.5587205142187869,"y":0.8255095779791932,"z":-0.0797829784835633},{"x":0.5681531789436759,"y":0.7513705442452631,"z":-0.3356251934774457},{"x":0.38451197521204317,"y":0.8407005536070944,"z":-0.38127827119212876},{"x":0.5587205142187869,"y":0.8255095779791932,"z":-0.0797829784835633},{"x":0.7255503097003378,"y":0.6304370868133587,"z":-0.275909093115884},{"x":0.5681531789436759,"y":0.7513705442452631,"z":-0.3356251934774457},{"x":0.7255503097003378,"y":0.6304370868133587,"z":-0.275909093115884},{"x":0.5373221322081146,"y":0.6241480178179744,"z":-0.5672073501755942},{"x":0.5681531789436759,"y":0.7513705442452631,"z":-0.3356251934774457},{"x":0.5373221322081146,"y":0.6241480178179744,"z":-0.5672073501755942},{"x":0.38451197521204317,"y":0.8407005536070944,"z":-0.38127827119212876},{"x":0.5681531789436759,"y":0.7513705442452631,"z":-0.3356251934774457},{"x":0.6999192132210171,"y":0.7131847977189135,"z":0.038477776270269035},{"x":0.6304298383824346,"y":0.7427927854132264,"z":-0.22542647762664844},{"x":0.4782293875333347,"y":0.8614072380764145,"z":-0.1710971159577355},{"x":0.6999192132210171,"y":0.7131847977189135,"z":0.038477776270269035},{"x":0.7559920155426176,"y":0.5961970278965751,"z":-0.270231708655926},{"x":0.6304298383824346,"y":0.7427927854132264,"z":-0.22542647762664844},{"x":0.7559920155426176,"y":0.5961970278965751,"z":-0.270231708655926},{"x":0.5134017823430509,"y":0.716416900983867,"z":-0.4724038885018312},{"x":0.6304298383824346,"y":0.7427927854132264,"z":-0.22542647762664844},{"x":0.5134017823430509,"y":0.716416900983867,"z":-0.4724038885018312},{"x":0.4782293875333347,"y":0.8614072380764145,"z":-0.1710971159577355},{"x":0.6304298383824346,"y":0.7427927854132264,"z":-0.22542647762664844},{"x":0.7431374109150741,"y":0.5910639618427944,"z":-0.3136720923339205},{"x":0.5454669234168201,"y":0.753893890670047,"z":-0.36621009962666007},{"x":0.5621023389336475,"y":0.8111172301849376,"z":-0.16164714492510399},{"x":0.7431374109150741,"y":0.5910639618427944,"z":-0.3136720923339205},{"x":0.5044642343897587,"y":0.6632431617267233,"z":-0.5528330169628928},{"x":0.5454669234168201,"y":0.753893890670047,"z":-0.36621009962666007},{"x":0.5044642343897587,"y":0.6632431617267233,"z":-0.5528330169628928},{"x":0.3096731512845793,"y":0.8654769776376033,"z":-0.39376660670092084},{"x":0.5454669234168201,"y":0.753893890670047,"z":-0.36621009962666007},{"x":0.3096731512845793,"y":0.8654769776376033,"z":-0.39376660670092084},{"x":0.5621023389336475,"y":0.8111172301849376,"z":-0.16164714492510399},{"x":0.5454669234168201,"y":0.753893890670047,"z":-0.36621009962666007},{"x":0.10221216647335032,"y":0.8247566067633091,"z":-0.556173725220004},{"x":-0.1773040059264969,"y":0.8599558478283426,"z":-0.47858043134697165},{"x":-0.10551512764677083,"y":0.9526310645523586,"z":-0.2852378177723387},{"x":0.10221216647335032,"y":0.8247566067633091,"z":-0.556173725220004},{"x":-0.238369053193474,"y":0.7278356565222428,"z":-0.6429894645905814},{"x":-0.1773040059264969,"y":0.8599558478283426,"z":-0.47858043134697165},{"x":-0.238369053193474,"y":0.7278356565222428,"z":-0.6429894645905814},{"x":-0.44157418545280414,"y":0.8217560216091593,"z":-0.36017951037056445},{"x":-0.1773040059264969,"y":0.8599558478283426,"z":-0.47858043134697165},{"x":-0.44157418545280414,"y":0.8217560216091593,"z":-0.36017951037056445},{"x":-0.10551512764677083,"y":0.9526310645523586,"z":-0.2852378177723387},{"x":-0.1773040059264969,"y":0.8599558478283426,"z":-0.47858043134697165},{"x":0.0314295075255343,"y":0.5338310371513777,"z":0.8450068696943159},{"x":0.0314295075255343,"y":0.5338310371513777,"z":0.8450068696943159},{"x":-0.048638453326892934,"y":0.6659695867360962,"z":0.7443915706135589},{"x":0.0314295075255343,"y":0.5338310371513777,"z":0.8450068696943159},{"x":0.11042902500241003,"y":0.38354494787502436,"z":0.9168962337127151},{"x":0.0314295075255343,"y":0.5338310371513777,"z":0.8450068696943159},{"x":0.41033444937668156,"y":0.8169013917735808,"z":0.4053365956499885},{"x":0.38775894521183035,"y":0.901418545954885,"z":0.19258142541997544},{"x":0.38775894521183035,"y":0.901418545954885,"z":0.19258142541997544},{"x":0.38775894521183035,"y":0.901418545954885,"z":0.19258142541997544},{"x":0.3446641817823121,"y":0.9382348254592094,"z":-0.030364684945777987},{"x":0.38775894521183035,"y":0.901418545954885,"z":0.19258142541997544},{"x":0.3526575741358886,"y":0.9333183684401032,"z":-0.06744967410517373},{"x":0.16031837728275755,"y":0.9515350839339098,"z":-0.26244809381725515},{"x":0.023139354802954645,"y":0.9922534000494292,"z":-0.12205638184728622},{"x":0.3526575741358886,"y":0.9333183684401032,"z":-0.06744967410517373},{"x":0.2895979873503849,"y":0.873701096010947,"z":-0.3908700558393751},{"x":0.16031837728275755,"y":0.9515350839339098,"z":-0.26244809381725515},{"x":0.2895979873503849,"y":0.873701096010947,"z":-0.3908700558393751},{"x":-0.04415332449303039,"y":0.8980304845605364,"z":-0.43771192893977845},{"x":0.16031837728275755,"y":0.9515350839339098,"z":-0.26244809381725515},{"x":-0.04415332449303039,"y":0.8980304845605364,"z":-0.43771192893977845},{"x":0.023139354802954645,"y":0.9922534000494292,"z":-0.12205638184728622},{"x":0.16031837728275755,"y":0.9515350839339098,"z":-0.26244809381725515},{"x":-0.5709567944085632,"y":0.5961969352172508,"z":0.564409030186668},{"x":-0.2656533398881438,"y":0.716416905915607,"z":0.64511636153843},{"x":-0.4760942197128705,"y":0.7427928311425067,"z":0.47073676716323376},{"x":-0.2656533398881438,"y":0.716416905915607,"z":0.64511636153843},{"x":-0.3611142038915999,"y":0.8614073653172937,"z":0.35717486295210454},{"x":-0.4760942197128705,"y":0.7427928311425067,"z":0.47073676716323376},{"x":-0.6506039117967706,"y":0.7131847313402204,"z":0.26092544708770293},{"x":-0.4760942197128705,"y":0.7427928311425067,"z":0.47073676716323376},{"x":-0.3611142038915999,"y":0.8614073653172937,"z":0.35717486295210454},{"x":-0.6506039117967706,"y":0.7131847313402204,"z":0.26092544708770293},{"x":-0.5709567944085632,"y":0.5961969352172508,"z":0.564409030186668},{"x":-0.4760942197128705,"y":0.7427928311425067,"z":0.47073676716323376},{"x":0.1577306214543608,"y":0.8361478131087636,"z":0.5253359741051941},{"x":0.25046129373481274,"y":0.9063472838121583,"z":0.34029948790294484},{"x":0.11984457833854693,"y":0.9089456407626232,"z":0.39931829307142946},{"x":0.25046129373481274,"y":0.9063472838121583,"z":0.34029948790294484},{"x":0.07930289811808307,"y":0.9611328104976955,"z":0.2644518310295353},{"x":0.11984457833854693,"y":0.9089456407626232,"z":0.39931829307142946},{"x":-0.013211421400216819,"y":0.8928690151753375,"z":0.45012262782980483},{"x":0.11984457833854693,"y":0.9089456407626232,"z":0.39931829307142946},{"x":0.07930289811808307,"y":0.9611328104976955,"z":0.2644518310295353},{"x":-0.013211421400216819,"y":0.8928690151753375,"z":0.45012262782980483},{"x":0.1577306214543608,"y":0.8361478131087636,"z":0.5253359741051941},{"x":0.11984457833854693,"y":0.9089456407626232,"z":0.39931829307142946}]},"indices":5,"material":0}]}]}