{"asset":{"version":"2.0","generator":"THREE.GLTFExporter"},"scenes":[{"name":"default","nodes":[0]}],"scene":0,"nodes":[{"name":"seat","extras":{"data":{"name":"seat","points":[{"name":"Origin","pos":{"x":0,"y":0,"z":0}}],"billboard":{"enabled":false,"y":false},"custom":[],"instances":[{"name":"seat_left","uuid":"865B5943-F579-4717-8851-649686C5C368","parent":"932C73AE-E30D-4B5F-A552-886B81F5BD53","pos":{"x":-1.17,"y":0.045,"z":-0.75},"rot":{"x":0,"y":0.4363323129985831,"z":0,"order":"XYZ"},"sca":{"x":1.0000000000000002,"y":1,"z":1.0000000000000002},"custom":[]},{"name":"seat_right","uuid":"DA1DAC99-268F-40F1-B877-6CC11A6B8144","parent":"932C73AE-E30D-4B5F-A552-886B81F5BD53","pos":{"x":1.0150000000000001,"y":0.045,"z":-0.625},"rot":{"x":0,"y":-1.1344640137963147,"z":0,"order":"XYZ"},"sca":{"x":1,"y":1,"z":1},"custom":[]},{"name":"seat","uuid":"B2A201A8-CDE9-46ED-AAB9-80CB83F98FFC","parent":"392A4330-E653-49B1-A608-D0F41CEEA284","pos":{"x":0.015,"y":-0.705,"z":0.19},"rot":{"x":-3.141592653589793,"y":1.6653345369377353e-16,"z":-3.141592653589793,"order":"XYZ"},"sca":{"x":1,"y":1,"z":1},"custom":[]},{"name":"seat","uuid":"BE7D0702-F597-4E2F-A9A3-D5F520D92063","parent":"51A2B2D1-A6E1-4EFB-BCED-E6DB8FA51ABA","pos":{"x":-12.5,"y":1,"z":-7.625},"rot":{"x":3.141592653589793,"y":-4.440892098500626e-16,"z":3.141592653589793,"order":"XYZ"},"sca":{"x":1,"y":1,"z":1},"custom":[]},{"name":"seat","uuid":"E6DE5649-DF9D-40A3-90A5-5125F8E9E814","parent":"51A2B2D1-A6E1-4EFB-BCED-E6DB8FA51ABA","pos":{"x":-9.75,"y":1,"z":-8},"rot":{"x":3.141592653589793,"y":-0.5235987755982994,"z":3.141592653589793,"order":"XYZ"},"sca":{"x":0.9999999999999996,"y":1,"z":0.9999999999999996},"custom":[]},{"name":"seat","uuid":"F20632C5-6B69-4066-B844-A4A3BF062716","parent":"51A2B2D1-A6E1-4EFB-BCED-E6DB8FA51ABA","pos":{"x":-5.375,"y":1,"z":-5.125},"rot":{"x":0,"y":1.5707963267948966,"z":0,"order":"XYZ"},"sca":{"x":1,"y":1,"z":1},"custom":[]},{"name":"seat","uuid":"A5024A11-7A90-486E-9BF4-47397206ABA3","parent":"51A2B2D1-A6E1-4EFB-BCED-E6DB8FA51ABA","pos":{"x":-7.125,"y":1,"z":-8.125},"rot":{"x":3.141592653589793,"y":-4.440892098500626e-16,"z":3.141592653589793,"order":"XYZ"},"sca":{"x":1,"y":1,"z":1},"custom":[]}]}},"mesh":0}],"bufferViews":[{"buffer":0,"byteOffset":0,"byteLength":660,"target":34962,"byteStride":12},{"buffer":0,"byteOffset":660,"byteLength":660,"target":34962,"byteStride":12},{"buffer":0,"byteOffset":1320,"byteLength":440,"target":34962,"byteStride":8},{"buffer":0,"byteOffset":1760,"byteLength":660,"target":34962,"byteStride":12},{"buffer":0,"byteOffset":2420,"byteLength":440,"target":34962,"byteStride":8},{"buffer":0,"byteOffset":2860,"byteLength":240,"target":34963}],"buffers":[{"byteLength":3100,"uri":"data:application/octet-stream;base64,"}],"accessors":[{"bufferView":0,"componentType":5126,"count":55,"max":[0.3125,1.421875,0.34375],"min":[-0.3125,0,-0.41943657398223877],"type":"VEC3"},{"bufferView":1,"componentType":5126,"count":55,"max":[0.7697768211364746,0.9999813437461853,0.9938837289810181],"min":[-0.7157425880432129,0.09607283025979996,-0.19289939105510712],"type":"VEC3"},{"bufferView":2,"componentType":5126,"count":55,"max":[0.3671875,0.421875],"min":[0.1640625,0.125],"type":"VEC2"},{"bufferView":3,"componentType":5126,"count":55,"max":[1,1,1],"min":[1,0.5271151661872864,0.44520121812820435],"type":"VEC3"},{"bufferView":4,"componentType":5126,"count":55,"max":[-1,0],"min":[-1,0],"type":"VEC2"},{"bufferView":5,"componentType":5123,"count":120,"max":[54],"min":[0],"type":"SCALAR"}],"materials":[{"pbrMetallicRoughness":{"metallicFactor":0.5,"roughnessFactor":0.5,"baseColorTexture":{"index":0}},"alphaMode":"MASK","alphaCutoff":0.01,"doubleSided":true}],"textures":[{"sampler":0,"source":0,"name":"cockpit_albedo"}],"samplers":[{"magFilter":9728,"minFilter":9728,"wrapS":33071,"wrapT":33071}],"images":[{"mimeType":"image/png","uri":"data:image/png;base64,"}],"meshes":[{"primitives":[{"mode":4,"attributes":{"POSITION":0,"NORMAL":1,"TEXCOORD_0":2,"COLOR_0":3,"_UVANIMATION":4},"extras":{"indexNormals":[{"x":0,"y":0.11043152607484656,"z":0.993883734673619},{"x":0,"y":0.11043152607484656,"z":0.993883734673619},{"x":0,"y":0.11043152607484656,"z":0.993883734673619},{"x":0,"y":0.11043152607484656,"z":0.993883734673619},{"x":0,"y":0.11043152607484656,"z":0.993883734673619},{"x":0,"y":0.11043152607484656,"z":0.993883734673619},{"x":0,"y":0.19611613513818407,"z":0.9805806756909203},{"x":0,"y":0.19611613513818407,"z":0.9805806756909203},{"x":0,"y":0.19611613513818407,"z":0.9805806756909203},{"x":0,"y":0.19611613513818407,"z":0.9805806756909203},{"x":0,"y":0.19611613513818407,"z":0.9805806756909203},{"x":0,"y":0.19611613513818407,"z":0.9805806756909203},{"x":0.769776797088575,"y":0.1679513011829618,"z":0.6158214376708601},{"x":0.769776797088575,"y":0.1679513011829618,"z":0.6158214376708601},{"x":0.769776797088575,"y":0.1679513011829618,"z":0.6158214376708601},{"x":0.769776797088575,"y":0.1679513011829618,"z":0.6158214376708601},{"x":0.769776797088575,"y":0.1679513011829618,"z":0.6158214376708601},{"x":0.769776797088575,"y":0.1679513011829618,"z":0.6158214376708601},{"x":-0.6265797685526615,"y":0.20506246970814376,"z":0.7518957222631938},{"x":-0.6265797685526615,"y":0.20506246970814376,"z":0.7518957222631938},{"x":-0.6265797685526615,"y":0.20506246970814376,"z":0.7518957222631938},{"x":-0.6265797685526615,"y":0.20506246970814376,"z":0.7518957222631938},{"x":-0.6265797685526615,"y":0.20506246970814376,"z":0.7518957222631938},{"x":-0.6265797685526615,"y":0.20506246970814376,"z":0.7518957222631938},{"x":0.11293866426664066,"y":0.9922485353016703,"z":0.05184305455272609},{"x":0.2635964639472186,"y":0.9639127634512592,"z":0.037270479608929874},{"x":-0.06836438217610734,"y":0.9962664500017344,"z":0.05272069660598819},{"x":0.11293866426664066,"y":0.9922485353016703,"z":0.05184305455272609},{"x":0.19611613513818407,"y":0.9805806756909202,"z":0},{"x":0.2635964639472186,"y":0.9639127634512592,"z":0.037270479608929874},{"x":-0.26377547616329733,"y":0.9638068845937987,"z":0.03871417549712224},{"x":-0.06836438217610734,"y":0.9962664500017344,"z":0.05272069660598819},{"x":-0.3303504247281061,"y":0.9438583563660176,"z":0},{"x":-0.26377547616329733,"y":0.9638068845937987,"z":0.03871417549712224},{"x":0.11293866426664066,"y":0.9922485353016703,"z":0.05184305455272609},{"x":-0.06836438217610734,"y":0.9962664500017344,"z":0.05272069660598819},{"x":-0.20460070502561228,"y":0.9596501315902919,"z":-0.19289939461221198},{"x":0,"y":0.999981321705081,"z":0.006111975209312275},{"x":0.20460070502561228,"y":0.9596501315902919,"z":-0.19289939461221198},{"x":-0.20460070502561228,"y":0.9596501315902919,"z":-0.19289939461221198},{"x":-0.20507577810739896,"y":0.9570202978345285,"z":0.20507577810739896},{"x":0,"y":0.999981321705081,"z":0.006111975209312275},{"x":-0.20507577810739896,"y":0.9570202978345285,"z":0.20507577810739896},{"x":0.20507577810739896,"y":0.9570202978345285,"z":0.20507577810739896},{"x":0,"y":0.999981321705081,"z":0.006111975209312275},{"x":0.20507577810739896,"y":0.9570202978345285,"z":0.20507577810739896},{"x":0.20460070502561228,"y":0.9596501315902919,"z":-0.19289939461221198},{"x":0,"y":0.999981321705081,"z":0.006111975209312275},{"x":0.18251997308476348,"y":0.880553338477186,"z":0.437392589696967},{"x":0.370902299893598,"y":0.9272557497339952,"z":0.05126654385548531},{"x":0.12564164543332115,"y":0.9905628631534238,"z":0.054766696760886406},{"x":0.18251997308476348,"y":0.880553338477186,"z":0.437392589696967},{"x":0.313560128604667,"y":0.7839003215116676,"z":0.5358920895883136},{"x":0.370902299893598,"y":0.9272557497339952,"z":0.05126654385548531},{"x":0.17124752025944562,"y":0.6494953665481016,"z":0.7408306524689283},{"x":0.313560128604667,"y":0.7839003215116676,"z":0.5358920895883136},{"x":0.18251997308476348,"y":0.880553338477186,"z":0.437392589696967},{"x":0.17124752025944562,"y":0.6494953665481016,"z":0.7408306524689283},{"x":0.2549775501947841,"y":0.6374438754869601,"z":0.7270844204773139},{"x":0.313560128604667,"y":0.7839003215116676,"z":0.5358920895883136},{"x":-0.0856237601297228,"y":0.6568125321232821,"z":0.7491767944531186},{"x":0.18251997308476348,"y":0.880553338477186,"z":0.437392589696967},{"x":-0.16086031464749073,"y":0.8872174365954301,"z":0.4323993285986282},{"x":-0.0856237601297228,"y":0.6568125321232821,"z":0.7491767944531186},{"x":0.17124752025944562,"y":0.6494953665481016,"z":0.7408306524689283},{"x":0.18251997308476348,"y":0.880553338477186,"z":0.437392589696967},{"x":-0.2549775501947841,"y":0.6374438754869601,"z":0.7270844204773139},{"x":-0.16086031464749073,"y":0.8872174365954301,"z":0.4323993285986282},{"x":-0.3548260354499053,"y":0.8870650886247633,"z":0.2953201874407562},{"x":-0.2549775501947841,"y":0.6374438754869601,"z":0.7270844204773139},{"x":-0.0856237601297228,"y":0.6568125321232821,"z":0.7491767944531186},{"x":-0.16086031464749073,"y":0.8872174365954301,"z":0.4323993285986282},{"x":-0.16086031464749073,"y":0.8872174365954301,"z":0.4323993285986282},{"x":0.12564164543332115,"y":0.9905628631534238,"z":0.054766696760886406},{"x":-0.2512832908666423,"y":0.9664376019516663,"z":0.0534328481848277},{"x":-0.16086031464749073,"y":0.8872174365954301,"z":0.4323993285986282},{"x":0.18251997308476348,"y":0.880553338477186,"z":0.437392589696967},{"x":0.12564164543332115,"y":0.9905628631534238,"z":0.054766696760886406},{"x":-0.3548260354499053,"y":0.8870650886247633,"z":0.2953201874407562},{"x":-0.2512832908666423,"y":0.9664376019516663,"z":0.0534328481848277},{"x":-0.370902299893598,"y":0.9272557497339952,"z":0.05126654385548531},{"x":-0.3548260354499053,"y":0.8870650886247633,"z":0.2953201874407562},{"x":-0.16086031464749073,"y":0.8872174365954301,"z":0.4323993285986282},{"x":-0.2512832908666423,"y":0.9664376019516663,"z":0.0534328481848277},{"x":-0.715742566732996,"y":0.09607282774939543,"z":0.6917243597956471},{"x":-0.5127690147738987,"y":0.11810610722614819,"z":0.8503639720282669},{"x":-0.715742566732996,"y":0.09607282774939543,"z":0.6917243597956471},{"x":-0.715742566732996,"y":0.09607282774939543,"z":0.6917243597956471},{"x":-0.25638450738694935,"y":0.13297013094077312,"z":0.9573849427735664},{"x":-0.5127690147738987,"y":0.11810610722614819,"z":0.8503639720282669},{"x":0.5127690147738987,"y":0.11810610722614819,"z":0.8503639720282669},{"x":0.715742566732996,"y":0.09607282774939543,"z":0.6917243597956471},{"x":0.25638450738694935,"y":0.13297013094077312,"z":0.9573849427735664},{"x":0.5127690147738987,"y":0.11810610722614819,"z":0.8503639720282669},{"x":0.715742566732996,"y":0.09607282774939543,"z":0.6917243597956471},{"x":0.715742566732996,"y":0.09607282774939543,"z":0.6917243597956471},{"x":-0.25638450738694935,"y":0.13297013094077312,"z":0.9573849427735664},{"x":0.25638450738694935,"y":0.13297013094077312,"z":0.9573849427735664},{"x":-0.5127690147738987,"y":0.11810610722614819,"z":0.8503639720282669},{"x":-0.25638450738694935,"y":0.13297013094077312,"z":0.9573849427735664},{"x":0.5127690147738987,"y":0.11810610722614819,"z":0.8503639720282669},{"x":0.25638450738694935,"y":0.13297013094077312,"z":0.9573849427735664},{"x":-0.6194873243274466,"y":0.203174702317469,"z":0.7582581983307726},{"x":-0.43425967910240787,"y":0.23314105219724532,"z":0.8700941218547766},{"x":-0.6194873243274466,"y":0.203174702317469,"z":0.7582581983307726},{"x":-0.6194873243274466,"y":0.203174702317469,"z":0.7582581983307726},{"x":-0.21712983955120396,"y":0.2526443650124141,"z":0.9428814652987632},{"x":-0.43425967910240787,"y":0.23314105219724532,"z":0.8700941218547766},{"x":0.43425967910240787,"y":0.23314105219724532,"z":0.8700941218547766},{"x":0.6194873243274466,"y":0.203174702317469,"z":0.7582581983307726},{"x":0.21712983955120396,"y":0.2526443650124141,"z":0.9428814652987632},{"x":0.43425967910240787,"y":0.23314105219724532,"z":0.8700941218547766},{"x":0.6194873243274466,"y":0.203174702317469,"z":0.7582581983307726},{"x":0.6194873243274466,"y":0.203174702317469,"z":0.7582581983307726},{"x":-0.21712983955120396,"y":0.2526443650124141,"z":0.9428814652987632},{"x":0.21712983955120396,"y":0.2526443650124141,"z":0.9428814652987632},{"x":-0.43425967910240787,"y":0.23314105219724532,"z":0.8700941218547766},{"x":-0.21712983955120396,"y":0.2526443650124141,"z":0.9428814652987632},{"x":0.43425967910240787,"y":0.23314105219724532,"z":0.8700941218547766},{"x":0.21712983955120396,"y":0.2526443650124141,"z":0.9428814652987632}]},"indices":5,"material":0}]}]}