{"asset":{"version":"2.0","generator":"THREE.GLTFExporter"},"scenes":[{"name":"default","nodes":[0]}],"scene":0,"nodes":[{"name":"computer","extras":{"data":{"name":"computer","points":[{"name":"Origin","pos":{"x":0,"y":0,"z":0}}],"billboard":{"enabled":false,"y":false},"custom":[],"instances":[{"name":"computer","uuid":"F3034846-4BEB-4D1F-BDE7-D29A0047048D","parent":"1016B0EF-5656-4871-AFD0-B46533526E5E","pos":{"x":-12.5,"y":1,"z":-8.75},"rot":{"x":0,"y":0,"z":0,"order":"XYZ"},"sca":{"x":1,"y":1,"z":1},"custom":[]},{"name":"computer","uuid":"3A625AC9-4815-4E17-B7E8-EA54176A0644","parent":"1016B0EF-5656-4871-AFD0-B46533526E5E","pos":{"x":-4.75,"y":1,"z":-2.125},"rot":{"x":0,"y":-1.5707963267948966,"z":0,"order":"XYZ"},"sca":{"x":1,"y":1,"z":1},"custom":[]},{"name":"computer","uuid":"E1AEF7E7-4485-496D-90C5-04A5E0B2ECE8","parent":"1016B0EF-5656-4871-AFD0-B46533526E5E","pos":{"x":-7.25,"y":1,"z":-8.75},"rot":{"x":0,"y":0,"z":0,"order":"XYZ"},"sca":{"x":1,"y":1,"z":1},"custom":[]},{"name":"computer","uuid":"2A81BACA-D64D-4AF1-97C3-104ECD48DFE2","parent":"1016B0EF-5656-4871-AFD0-B46533526E5E","pos":{"x":-4.75,"y":1,"z":-5},"rot":{"x":0,"y":-1.5707963267948966,"z":0,"order":"XYZ"},"sca":{"x":1,"y":1,"z":1},"custom":[]},{"name":"computer","uuid":"0A37CBAE-DD7E-4D3E-A4A3-23DAB8CA9C0B","parent":"1016B0EF-5656-4871-AFD0-B46533526E5E","pos":{"x":-9.875,"y":1,"z":-8.75},"rot":{"x":0,"y":0,"z":0,"order":"XYZ"},"sca":{"x":1,"y":1,"z":1},"custom":[]}]}},"mesh":0}],"bufferViews":[{"buffer":0,"byteOffset":0,"byteLength":384,"target":34962,"byteStride":12},{"buffer":0,"byteOffset":384,"byteLength":384,"target":34962,"byteStride":12},{"buffer":0,"byteOffset":768,"byteLength":256,"target":34962,"byteStride":8},{"buffer":0,"byteOffset":1024,"byteLength":384,"target":34962,"byteStride":12},{"buffer":0,"byteOffset":1408,"byteLength":256,"target":34962,"byteStride":8},{"buffer":0,"byteOffset":1664,"byteLength":96,"target":34963}],"buffers":[{"byteLength":1760,"uri":"data:application/octet-stream;base64,"}],"accessors":[{"bufferView":0,"componentType":5126,"count":32,"max":[0.9375,2.015625,0.59375],"min":[-0.9375,0,-0.234375],"type":"VEC3"},{"bufferView":1,"componentType":5126,"count":32,"max":[1,0.9468815922737122,0.9929468035697937],"min":[-1,-0.3713906705379486,0],"type":"VEC3"},{"bufferView":2,"componentType":5126,"count":32,"max":[0.9921875,0.9921875],"min":[0.03125,0.84375],"type":"VEC2"},{"bufferView":3,"componentType":5126,"count":32,"max":[1,1,1],"min":[1,1,1],"type":"VEC3"},{"bufferView":4,"componentType":5126,"count":32,"max":[-1,0],"min":[-1,0],"type":"VEC2"},{"bufferView":5,"componentType":5123,"count":48,"max":[31],"min":[0],"type":"SCALAR"}],"materials":[{"pbrMetallicRoughness":{"metallicFactor":0.5,"roughnessFactor":0.5,"baseColorTexture":{"index":0}},"alphaMode":"MASK","alphaCutoff":0.01,"doubleSided":true}],"textures":[{"sampler":0,"source":0,"name":"0"}],"samplers":[{"magFilter":9728,"minFilter":9728,"wrapS":33071,"wrapT":33071}],"images":[{"mimeType":"image/png","uri":"data:image/png;base64,"}],"meshes":[{"primitives":[{"mode":4,"attributes":{"POSITION":0,"NORMAL":1,"TEXCOORD_0":2,"COLOR_0":3,"_UVANIMATION":4},"extras":{"indexNormals":[{"x":0,"y":-0.3713906763541037,"z":0.9284766908852593},{"x":0,"y":-0.3713906763541037,"z":0.9284766908852593},{"x":0,"y":-0.3713906763541037,"z":0.9284766908852593},{"x":0,"y":-0.3713906763541037,"z":0.9284766908852593},{"x":0,"y":-0.3713906763541037,"z":0.9284766908852593},{"x":0,"y":-0.3713906763541037,"z":0.9284766908852593},{"x":0,"y":0.11856081112470784,"z":0.9929467931694282},{"x":0,"y":0.11856081112470784,"z":0.9929467931694282},{"x":0,"y":0.11856081112470784,"z":0.9929467931694282},{"x":0,"y":0.11856081112470784,"z":0.9929467931694282},{"x":0,"y":0.11856081112470784,"z":0.9929467931694282},{"x":0,"y":0.11856081112470784,"z":0.9929467931694282},{"x":1,"y":0,"z":0},{"x":1,"y":0,"z":0},{"x":1,"y":0,"z":0},{"x":1,"y":0,"z":0},{"x":1,"y":0,"z":0},{"x":1,"y":0,"z":0},{"x":0,"y":0.9468815887204547,"z":0.32158242635789025},{"x":0,"y":0.9468815887204547,"z":0.32158242635789025},{"x":0,"y":0.9468815887204547,"z":0.32158242635789025},{"x":0,"y":0.9468815887204547,"z":0.32158242635789025},{"x":0,"y":0.9468815887204547,"z":0.32158242635789025},{"x":0,"y":0.9468815887204547,"z":0.32158242635789025},{"x":0.11574739812575115,"y":0.8944272029063931,"z":0.43197513646987235},{"x":0.11574739812575115,"y":0.8944272029063931,"z":0.43197513646987235},{"x":0.11574743251104928,"y":0.8944271776754633,"z":0.4319751794983196},{"x":0.11574739812575115,"y":0.8944272029063931,"z":0.43197513646987235},{"x":0.11574736374045255,"y":0.8944272281373197,"z":0.43197509344142343},{"x":0.11574739812575115,"y":0.8944272029063931,"z":0.43197513646987235},{"x":0,"y":0.1259725370438477,"z":0.9920337292203006},{"x":0,"y":0.1259725370438477,"z":0.9920337292203006},{"x":0,"y":0.1259725370438477,"z":0.9920337292203006},{"x":0,"y":0.1259725370438477,"z":0.9920337292203006},{"x":0,"y":0.1259725370438477,"z":0.9920337292203006},{"x":0,"y":0.1259725370438477,"z":0.9920337292203006},{"x":-0.24240341325157883,"y":0.8191519746864746,"z":0.5198371164232444},{"x":-0.24240341325157883,"y":0.8191519746864746,"z":0.5198371164232444},{"x":-0.2424032023976777,"y":0.8191518922130908,"z":0.5198373447060756},{"x":-0.24240341325157883,"y":0.8191519746864746,"z":0.5198371164232444},{"x":-0.2424036241054548,"y":0.8191520571597736,"z":0.5198368881403594},{"x":-0.24240341325157883,"y":0.8191519746864746,"z":0.5198371164232444},{"x":-1,"y":0,"z":0},{"x":-1,"y":0,"z":0},{"x":-1,"y":0,"z":0},{"x":-1,"y":0,"z":0},{"x":-1,"y":0,"z":0},{"x":-1,"y":0,"z":0}]},"indices":5,"material":0}]}]}