{"asset":{"version":"2.0","generator":"THREE.GLTFExporter"},"scenes":[{"name":"default","nodes":[0]}],"scene":0,"nodes":[{"name":"starmap","extras":{"data":{"name":"starmap","points":[{"name":"Origin","pos":{"x":0,"y":0,"z":0}}],"billboard":{"enabled":false,"y":false},"custom":[],"instances":[{"name":"starmap","uuid":"03F1DDF2-104F-48E8-970B-7919A60A541D","parent":null,"pos":{"x":-6.75,"y":1.875,"z":-0.06},"rot":{"x":0,"y":0,"z":0,"order":"XYZ"},"sca":{"x":1,"y":1,"z":1},"custom":[]}]}},"mesh":0}],"bufferViews":[{"buffer":0,"byteOffset":0,"byteLength":48,"target":34962,"byteStride":12},{"buffer":0,"byteOffset":48,"byteLength":48,"target":34962,"byteStride":12},{"buffer":0,"byteOffset":96,"byteLength":32,"target":34962,"byteStride":8},{"buffer":0,"byteOffset":128,"byteLength":48,"target":34962,"byteStride":12},{"buffer":0,"byteOffset":176,"byteLength":32,"target":34962,"byteStride":8},{"buffer":0,"byteOffset":208,"byteLength":12,"target":34963}],"buffers":[{"byteLength":220,"uri":"data:application/octet-stream;base64,"}],"accessors":[{"bufferView":0,"componentType":5126,"count":4,"max":[0.75,1,0],"min":[-0.75,0,0],"type":"VEC3"},{"bufferView":1,"componentType":5126,"count":4,"max":[0,0,1],"min":[0,0,1],"type":"VEC3"},{"bufferView":2,"componentType":5126,"count":4,"max":[0.21875,0.8125],"min":[0.03125,0.6875],"type":"VEC2"},{"bufferView":3,"componentType":5126,"count":4,"max":[1,1,1],"min":[1,1,1],"type":"VEC3"},{"bufferView":4,"componentType":5126,"count":4,"max":[-1,0],"min":[-1,0],"type":"VEC2"},{"bufferView":5,"componentType":5123,"count":6,"max":[3],"min":[0],"type":"SCALAR"}],"materials":[{"pbrMetallicRoughness":{"metallicFactor":0.5,"roughnessFactor":0.5,"baseColorTexture":{"index":0}},"alphaMode":"MASK","alphaCutoff":0.01}],"textures":[{"sampler":0,"source":0,"name":"0"}],"samplers":[{"magFilter":9728,"minFilter":9728,"wrapS":33071,"wrapT":33071}],"images":[{"mimeType":"image/png","uri":"data:image/png;base64,"}],"meshes":[{"primitives":[{"mode":4,"attributes":{"POSITION":0,"NORMAL":1,"TEXCOORD_0":2,"COLOR_0":3,"_UVANIMATION":4},"extras":{"indexNormals":[{"x":0,"y":0,"z":1},{"x":0,"y":0,"z":1},{"x":0,"y":0,"z":1},{"x":0,"y":0,"z":1},{"x":0,"y":0,"z":1},{"x":0,"y":0,"z":1}]},"indices":5,"material":0}]}]}