{"asset":{"version":"2.0","generator":"THREE.GLTFExporter"},"scenes":[{"name":"default","nodes":[0]}],"scene":0,"nodes":[{"name":"fuel_gauge","extras":{"data":{"name":"fuel_gauge","points":[{"name":"Origin","pos":{"x":0,"y":0,"z":0}}],"billboard":{"enabled":false,"y":false},"custom":[],"instances":[{"name":"fuel_gauge","uuid":"1E78D3D1-02F5-4D3A-8A41-6AF454AEEF7A","parent":null,"pos":{"x":0.595,"y":1.705,"z":-2.56},"rot":{"x":0,"y":0,"z":0,"order":"XYZ"},"sca":{"x":1,"y":1,"z":1},"custom":[]}]}},"mesh":0}],"bufferViews":[{"buffer":0,"byteOffset":0,"byteLength":48,"target":34962,"byteStride":12},{"buffer":0,"byteOffset":48,"byteLength":48,"target":34962,"byteStride":12},{"buffer":0,"byteOffset":96,"byteLength":32,"target":34962,"byteStride":8},{"buffer":0,"byteOffset":128,"byteLength":48,"target":34962,"byteStride":12},{"buffer":0,"byteOffset":176,"byteLength":32,"target":34962,"byteStride":8},{"buffer":0,"byteOffset":208,"byteLength":12,"target":34963}],"buffers":[{"byteLength":220,"uri":"data:application/octet-stream;base64,"}],"accessors":[{"bufferView":0,"componentType":5126,"count":4,"max":[0.03125,0.142984539270401,0.18937623500823975],"min":[-0.03125,-0.1438036561012268,-0.2201997935771942],"type":"VEC3"},{"bufferView":1,"componentType":5126,"count":4,"max":[0,0.8191520571708679,0.5735763907432556],"min":[0,0.8191520571708679,0.5735763907432556],"type":"VEC3"},{"bufferView":2,"componentType":5126,"count":4,"max":[0.517578125,0.125],"min":[0.513671875,0],"type":"VEC2"},{"bufferView":3,"componentType":5126,"count":4,"max":[1,1,1],"min":[1,1,1],"type":"VEC3"},{"bufferView":4,"componentType":5126,"count":4,"max":[-1,0],"min":[-1,0],"type":"VEC2"},{"bufferView":5,"componentType":5123,"count":6,"max":[3],"min":[0],"type":"SCALAR"}],"materials":[{"pbrMetallicRoughness":{"metallicFactor":0.5,"roughnessFactor":0.5,"baseColorTexture":{"index":0}},"alphaMode":"MASK","alphaCutoff":0.01}],"textures":[{"sampler":0,"source":0,"name":"dashboard_emission"}],"samplers":[{"magFilter":9728,"minFilter":9728,"wrapS":33071,"wrapT":33071}],"images":[{"mimeType":"image/png","uri":"data:image/png;base64,"}],"meshes":[{"primitives":[{"mode":4,"attributes":{"POSITION":0,"NORMAL":1,"TEXCOORD_0":2,"COLOR_0":3,"_UVANIMATION":4},"extras":{"indexNormals":[{"x":0,"y":0.819152069955651,"z":0.5735763996952563},{"x":0,"y":0.819152069955651,"z":0.5735763996952563},{"x":0,"y":0.819152069955651,"z":0.5735763996952563},{"x":0,"y":0.819152069955651,"z":0.5735763996952563},{"x":0,"y":0.819152069955651,"z":0.5735763996952563},{"x":0,"y":0.819152069955651,"z":0.5735763996952563}]},"indices":5,"material":0}]}]}