{"asset":{"version":"2.0","generator":"THREE.GLTFExporter"},"scenes":[{"name":"default","nodes":[0]}],"scene":0,"nodes":[{"name":"screen","extras":{"data":{"name":"screen","points":[{"name":"Origin","pos":{"x":0,"y":0,"z":0}}],"billboard":{"enabled":false,"y":false},"custom":[],"instances":[{"name":"screen","uuid":"8EA133B3-A383-4E80-91C8-D66A9BCCB9EF","parent":null,"pos":{"x":0,"y":0,"z":0},"rot":{"x":0,"y":0,"z":0,"order":"XYZ"},"sca":{"x":1,"y":1,"z":1},"custom":[]}]}},"mesh":0}],"bufferViews":[{"buffer":0,"byteOffset":0,"byteLength":48,"target":34962,"byteStride":12},{"buffer":0,"byteOffset":48,"byteLength":48,"target":34962,"byteStride":12},{"buffer":0,"byteOffset":96,"byteLength":32,"target":34962,"byteStride":8},{"buffer":0,"byteOffset":128,"byteLength":48,"target":34962,"byteStride":12},{"buffer":0,"byteOffset":176,"byteLength":32,"target":34962,"byteStride":8},{"buffer":0,"byteOffset":208,"byteLength":12,"target":34963}],"buffers":[{"byteLength":220,"uri":"data:application/octet-stream;base64,"}],"accessors":[{"bufferView":0,"componentType":5126,"count":4,"max":[0.375,0.3298093378543854,0.29104501008987427],"min":[-0.375,-0.053212832659482956,-0.030348768457770348],"type":"VEC3"},{"bufferView":1,"componentType":5126,"count":4,"max":[0,0.6427876353263855,0.7660444378852844],"min":[0,0.6427876353263855,0.7660444378852844],"type":"VEC3"},{"bufferView":2,"componentType":5126,"count":4,"max":[0.0546875,0.125],"min":[0.0078125,0],"type":"VEC2"},{"bufferView":3,"componentType":5126,"count":4,"max":[1,1,1],"min":[1,1,1],"type":"VEC3"},{"bufferView":4,"componentType":5126,"count":4,"max":[-1,0],"min":[-1,0],"type":"VEC2"},{"bufferView":5,"componentType":5123,"count":6,"max":[3],"min":[0],"type":"SCALAR"}],"materials":[{"pbrMetallicRoughness":{"metallicFactor":0.5,"roughnessFactor":0.5,"baseColorTexture":{"index":0}},"alphaMode":"MASK","alphaCutoff":0.01}],"textures":[{"sampler":0,"source":0,"name":"3"}],"samplers":[{"magFilter":9728,"minFilter":9728,"wrapS":33071,"wrapT":33071}],"images":[{"mimeType":"image/png","uri":"data:image/png;base64,"}],"meshes":[{"primitives":[{"mode":4,"attributes":{"POSITION":0,"NORMAL":1,"TEXCOORD_0":2,"COLOR_0":3,"_UVANIMATION":4},"extras":{"indexNormals":[{"x":0,"y":0.642787629094852,"z":0.7660444268334697},{"x":0,"y":0.642787629094852,"z":0.7660444268334697},{"x":0,"y":0.642787629094852,"z":0.7660444268334697},{"x":0,"y":0.642787629094852,"z":0.7660444268334697},{"x":0,"y":0.642787629094852,"z":0.7660444268334697},{"x":0,"y":0.642787629094852,"z":0.7660444268334697}]},"indices":5,"material":0}]}]}