{"asset":{"version":"2.0","generator":"THREE.GLTFExporter"},"scenes":[{"name":"default","nodes":[0]}],"scene":0,"nodes":[{"name":"space_station","extras":{"data":{"name":"space_station","points":[{"name":"Origin","pos":{"x":0,"y":0,"z":0}}],"billboard":{"enabled":false,"y":false},"custom":[],"instances":[{"name":"space_station","uuid":"0C022A1C-8B53-4EE3-B89C-B2B1C041A4B4","parent":null,"pos":{"x":0,"y":-0.125,"z":0.125},"rot":{"x":0,"y":0,"z":0,"order":"XYZ"},"sca":{"x":1,"y":1,"z":1},"custom":[]}]}},"mesh":0}],"bufferViews":[{"buffer":0,"byteOffset":0,"byteLength":240,"target":34962,"byteStride":12},{"buffer":0,"byteOffset":240,"byteLength":240,"target":34962,"byteStride":12},{"buffer":0,"byteOffset":480,"byteLength":160,"target":34962,"byteStride":8},{"buffer":0,"byteOffset":640,"byteLength":240,"target":34962,"byteStride":12},{"buffer":0,"byteOffset":880,"byteLength":160,"target":34962,"byteStride":8},{"buffer":0,"byteOffset":1040,"byteLength":60,"target":34963}],"buffers":[{"byteLength":1100,"uri":"data:application/octet-stream;base64,"}],"accessors":[{"bufferView":0,"componentType":5126,"count":20,"max":[3.75,1,10.25],"min":[-18.25,-0.00006722836405970156,-9.25],"type":"VEC3"},{"bufferView":1,"componentType":5126,"count":20,"max":[0,1,0.7071067690849304],"min":[0,0.7071067690849304,-0.7071067690849304],"type":"VEC3"},{"bufferView":2,"componentType":5126,"count":20,"max":[0.9296875,0.9921875],"min":[0.7890625,0.9453125],"type":"VEC2"},{"bufferView":3,"componentType":5126,"count":20,"max":[1,1,1],"min":[1,1,1],"type":"VEC3"},{"bufferView":4,"componentType":5126,"count":20,"max":[-1,0],"min":[-1,0],"type":"VEC2"},{"bufferView":5,"componentType":5123,"count":30,"max":[19],"min":[0],"type":"SCALAR"}],"materials":[{"pbrMetallicRoughness":{"metallicFactor":0.5,"roughnessFactor":0.5,"baseColorTexture":{"index":0}},"alphaMode":"MASK","alphaCutoff":0.01}],"textures":[{"sampler":0,"source":0,"name":"0"}],"samplers":[{"magFilter":9728,"minFilter":9728,"wrapS":33071,"wrapT":33071}],"images":[{"mimeType":"image/png","uri":"data:image/png;base64,"}],"meshes":[{"primitives":[{"mode":4,"attributes":{"POSITION":0,"NORMAL":1,"TEXCOORD_0":2,"COLOR_0":3,"_UVANIMATION":4},"extras":{"indexNormals":[{"x":0,"y":0.9999999999990888,"z":0.0000013499646573441035},{"x":0,"y":0.9999999999990888,"z":0.0000013499646573441035},{"x":0,"y":0.9999999999990888,"z":0.0000013499646573441035},{"x":0,"y":0.9999999999990888,"z":0.0000013499646573441035},{"x":0,"y":0.9999999999990888,"z":0.0000013499646573441035},{"x":0,"y":0.9999999999990888,"z":0.0000013499646573441035},{"x":0,"y":0.9675382212353982,"z":-0.25272473256221173},{"x":0,"y":0.9675382212353982,"z":0.25272473256221173},{"x":0,"y":0.8628562094610167,"z":-0.5054494651244235},{"x":0,"y":0.9675382212353982,"z":-0.25272473256221173},{"x":0,"y":0.8628562094610167,"z":0.5054494651244235},{"x":0,"y":0.9675382212353982,"z":0.25272473256221173},{"x":0,"y":0.7071067811865476,"z":-0.7071067811865476},{"x":0,"y":0.8628562094610167,"z":-0.5054494651244235},{"x":0,"y":0.7071067811865476,"z":-0.7071067811865476},{"x":0,"y":0.7071067811865476,"z":-0.7071067811865476},{"x":0,"y":0.9675382212353982,"z":-0.25272473256221173},{"x":0,"y":0.8628562094610167,"z":-0.5054494651244235},{"x":0,"y":0.8628562094610167,"z":0.5054494651244235},{"x":0,"y":0.7071067811865476,"z":0.7071067811865476},{"x":0,"y":0.9675382212353982,"z":0.25272473256221173},{"x":0,"y":0.8628562094610167,"z":0.5054494651244235},{"x":0,"y":0.7071067811865476,"z":0.7071067811865476},{"x":0,"y":0.7071067811865476,"z":0.7071067811865476},{"x":0,"y":1,"z":0},{"x":0,"y":1,"z":0},{"x":0,"y":1,"z":0},{"x":0,"y":1,"z":0},{"x":0,"y":1,"z":0},{"x":0,"y":1,"z":0}]},"indices":5,"material":0}]}]}